<svg width="72" height="34" viewBox="0 0 72 34" fill="none" xmlns="http://www.w3.org/2000/svg">
<g clip-path="url(#clip0_14_1227)">
<path d="M22.4784 7.14012H27.6435V32.723H22.2252L21.6268 30.4329C19.3061 32.4677 16.557 33.485 13.3796 33.485C10.9793 33.5194 8.61294 32.913 6.52295 31.7281C4.50636 30.5843 2.84628 28.9007 1.72806 26.8651C0.564759 24.7447 -0.0300234 22.3576 0.00190212 19.9373C-0.030971 17.5298 0.564093 15.1555 1.72806 13.0499C2.84842 11.0234 4.50862 9.34967 6.52295 8.21586C8.6133 7.03782 10.9766 6.43439 13.3739 6.46659C16.6152 6.46659 19.4046 7.50768 21.7419 9.58987L22.4784 7.14012ZM8.95875 24.9407C10.2757 26.2737 11.9316 26.9402 13.9262 26.9402C15.9209 26.9402 17.5768 26.2769 18.8937 24.9504C20.2095 23.6251 20.8667 21.9522 20.8654 19.9315C20.8641 17.9109 20.2069 16.2374 18.8937 14.9108C17.5806 13.5843 15.9248 12.9216 13.9262 12.9229C11.9277 12.9242 10.2719 13.5907 8.95875 14.9224C7.64431 16.2579 6.98709 17.9295 6.98709 19.9373C6.98709 21.9451 7.64431 23.6129 8.95875 24.9407Z" fill="#161F41"/>
<path d="M32.3715 32.7683V0.500122H39.2646V32.7683H32.3715Z" fill="#161F41"/>
<path d="M57.3624 26.6141H60.4982V32.7721H55.6113C52.8136 32.7721 50.6041 31.9588 48.9828 30.332C47.3615 28.7053 46.5508 26.4717 46.5508 23.6313V12.7354H41.9478V11.2555L52.0151 0.500122H53.3212V7.18545H60.3601V12.7354H53.444V22.7057C53.444 23.9552 53.7822 24.9174 54.4586 25.5922C55.135 26.2671 56.1029 26.6077 57.3624 26.6141Z" fill="#161F41"/>
<path d="M64.7155 29.1136V29.0193C64.7155 28.0495 65.0994 27.1195 65.7829 26.4338C66.4663 25.7481 67.3931 25.3629 68.3596 25.3629C69.3261 25.3629 70.253 25.7481 70.9364 26.4338C71.6198 27.1195 72.0037 28.0495 72.0037 29.0193V29.1136C72.0037 30.0833 71.6198 31.0133 70.9364 31.699C70.253 32.3847 69.3261 32.7699 68.3596 32.7699C67.3931 32.7699 66.4663 32.3847 65.7829 31.699C65.0994 31.0133 64.7155 30.0833 64.7155 29.1136Z" fill="#FFCB05"/>
</g>
<defs>
<clipPath id="clip0_14_1227">
<rect width="72" height="33" fill="white" transform="translate(0 0.5)"/>
</clipPath>
</defs>
</svg>
