<?xml version="1.0" encoding="UTF-8"?>
<svg id="Layer_2" xmlns="http://www.w3.org/2000/svg" viewBox="0 0 1532.08 358.19">
  <defs>
    <style>
      .cls-1 {
        fill: #2b3b96;
      }

      .cls-2 {
        fill: #239d49;
      }
    </style>
  </defs>
  <g id="Layer_1-2" data-name="Layer_1">
    <g>
      <path class="cls-1" d="M461.46,1.74v145.95c0,1.62-2.01,2.36-3.06,1.14L330.96.61c-.33-.39-.81-.61-1.32-.61h-44.45c-.96,0-1.74.78-1.74,1.74v203.57c0,.96.78,1.74,1.74,1.74h41.42c.96,0,1.74-.78,1.74-1.74V64.22c0-1.62,2.01-2.36,3.06-1.14l123.25,143.36c.33.39.81.61,1.32.61h48.63c.96,0,1.74-.78,1.74-1.74V1.74c0-.96-.78-1.74-1.74-1.74h-41.42c-.96,0-1.74.78-1.74,1.74Z"/>
      <rect class="cls-1" x="0" y="0" width="165.56" height="44.9" rx=".72" ry=".72"/>
      <path class="cls-2" d="M163.81,81.07H1.74c-.96,0-1.74.78-1.74,1.74v122.49c0,.96.78,1.74,1.74,1.74h41.42c.96,0,1.74-.78,1.74-1.74v-77.59c0-.96.78-1.74,1.74-1.74h117.17c.96,0,1.74-.78,1.74-1.74v-41.42c0-.96-.78-1.74-1.74-1.74Z"/>
      <rect class="cls-1" x="121.71" y="81.07" width="207.05" height="44.9" rx=".72" ry=".72" transform="translate(328.76 -121.71) rotate(90)"/>
      <path class="cls-1" d="M1485.68,0h-203.9c-.96,0-1.74.78-1.74,1.74v41.42c0,.96.78,1.74,1.74,1.74h77.76c.96,0,1.74.78,1.74,1.74v158.66c0,.96.78,1.74,1.74,1.74h41.42c.96,0,1.74-.78,1.74-1.74V46.65c0-.96.78-1.74,1.74-1.74h77.76c.96,0,1.74-.78,1.74-1.74V1.74c0-.96-.78-1.74-1.74-1.74Z"/>
      <path class="cls-1" d="M711.09,1.74v77.59c0,.96-.78,1.74-1.74,1.74h-119.84c-.96,0-1.74-.78-1.74-1.74V1.74c0-.96-.78-1.74-1.74-1.74h-41.42c-.96,0-1.74.78-1.74,1.74v203.57c0,.96.78,1.74,1.74,1.74h41.42c.96,0,1.74-.78,1.74-1.74v-77.59c0-.96.78-1.74,1.74-1.74h119.84c.96,0,1.74.78,1.74,1.74v77.59c0,.96.78,1.74,1.74,1.74h41.42c.96,0,1.74-.78,1.74-1.74V1.74c0-.96-.78-1.74-1.74-1.74h-41.42c-.96,0-1.74.78-1.74,1.74Z"/>
      <path class="cls-1" d="M924.14,0h-30.31c-.64,0-1.22.35-1.53.9l-111.61,203.57c-.64,1.16.2,2.58,1.53,2.58h45.09c.64,0,1.22-.35,1.53-.9l78.62-143.38c.66-1.21,2.39-1.21,3.06,0l78.62,143.38c.31.56.89.9,1.53.9h45.13c1.32,0,2.16-1.42,1.53-2.58L925.66.9c-.31-.56-.89-.9-1.53-.9Z"/>
      <path class="cls-1" d="M1200.5,0h-30.31c-.64,0-1.22.35-1.53.9l-111.61,203.57c-.64,1.16.2,2.58,1.53,2.58h45.09c.64,0,1.22-.35,1.53-.9l78.62-143.38c.66-1.21,2.39-1.21,3.06,0l78.62,143.38c.31.56.89.9,1.53.9h45.13c1.32,0,2.16-1.42,1.53-2.58L1202.03.9c-.31-.56-.89-.9-1.53-.9Z"/>
      <path class="cls-2" d="M1368.26,333.03h162.07c.96,0,1.74-.78,1.74-1.74v-122.49c0-.96-.78-1.74-1.74-1.74h-41.42c-.96,0-1.74.78-1.74,1.74v77.59c0,.96-.78,1.74-1.74,1.74h-117.17c-.96,0-1.74.78-1.74,1.74v41.42c0,.96.78,1.74,1.74,1.74Z"/>
      <g>
        <path class="cls-2" d="M40.19,334.66c1.18-1.24,2.88-2.26,5.12-3.07,2.24-.81,4.46-1.21,6.7-1.21,2.48,0,4.7.36,6.65,1.07,1.95.71,3.6,1.67,4.93,2.89,1.33,1.21,2.34,2.6,3.02,4.19.69,1.58,1.03,3.27,1.03,5.07,0,2.11-.42,4.06-1.25,5.86-.84,1.8-2.05,3.35-3.63,4.65-1.58,1.3-3.49,2.31-5.73,3.02-2.23.71-4.71,1.07-7.44,1.07-4.9,0-9.62-1.11-14.14-3.35-4.52-2.23-8.37-5.4-11.54-9.49l6.79-6.14c3.04,3.35,6.05,5.86,9.03,7.54,2.97,1.67,6.05,2.51,9.21,2.51,2.36,0,4.12-.53,5.3-1.58,1.18-1.05,1.77-2.36,1.77-3.91,0-1.3-.46-2.39-1.4-3.26-.93-.87-2.26-1.3-4-1.3-1.05,0-2.12.22-3.21.65-1.09.43-1.97.96-2.65,1.58l-4.56-6.79Z"/>
        <path class="cls-2" d="M72.48,281.72h-7.63v-8.75h6.24c-.37-.62-.67-1.4-.89-2.32-.22-.93-.32-1.83-.32-2.7,0-2.42.54-4.59,1.63-6.51,1.08-1.92,2.6-3.58,4.56-4.98,1.95-1.4,4.29-2.46,7.03-3.21,2.73-.74,5.77-1.11,9.11-1.11,5.03,0,9.68.68,13.96,2.05,4.28,1.37,8.14,3.09,11.58,5.16,3.44,2.08,6.48,4.39,9.12,6.93,2.63,2.54,4.86,4.99,6.65,7.35l.75.93-7.63,4.84-1.03-1.21c-1.92-2.17-4.01-4.26-6.28-6.28-2.26-2.02-4.71-3.81-7.35-5.4-2.63-1.58-5.46-2.85-8.46-3.81-3.01-.96-6.19-1.44-9.54-1.44-4.34,0-7.5.82-9.49,2.47s-2.97,3.86-2.97,6.65c0,.99.15,1.86.46,2.6h9.67v8.75h-7.72v50.7h-11.45v-50.7Z"/>
        <path class="cls-2" d="M181.14,272.98h19.16v8.75h-7.73v50.7h-11.44v-10.61c-.88.68-2.63,1.4-5.26,2.14-2.63.74-5.82,1.11-9.54,1.11-6.58,0-11.74-1.32-15.49-3.95-3.75-2.63-5.63-6.34-5.63-11.12,0-2.54.79-4.68,2.37-6.42,1.58-1.74,3.52-2.95,5.82-3.63-2.61-.99-4.9-2.62-6.89-4.88-1.98-2.26-2.97-5.23-2.97-8.89,0-1.98.37-3.83,1.12-5.53.75-1.71,1.81-3.2,3.21-4.47,1.39-1.27,3.05-2.26,4.97-2.98,1.92-.71,4.09-1.07,6.52-1.07s4.66.39,6.56,1.16c1.89.77,3.47,1.78,4.75,3.02,1.27,1.24,2.23,2.65,2.88,4.23.65,1.58.98,3.18.98,4.79,0,1.92-.33,3.6-.98,5.02-.65,1.43-1.32,2.48-2,3.16l-8.84-2.7c.5-.56.92-1.27,1.25-2.14.34-.87.51-1.8.51-2.79,0-1.49-.39-2.67-1.16-3.54-.77-.87-1.9-1.3-3.39-1.3-1.24,0-2.34.48-3.3,1.44-.97.96-1.44,2.46-1.44,4.51,0,3.16,1.09,5.63,3.26,7.4,2.17,1.76,5.12,2.65,8.84,2.65h5.31v8.84h-8.65c-2.24,0-3.94.42-5.12,1.25-1.18.84-1.76,1.88-1.76,3.12,0,1.74.84,3.09,2.51,4.05,1.67.96,4.16,1.44,7.44,1.44,2.79,0,5.5-.39,8.14-1.16,2.63-.77,4.63-1.85,6.01-3.21v-38.42Z"/>
        <path class="cls-2" d="M206.07,281.72h-7.63v-8.75h26.79v8.75h-7.73v50.7h-11.44v-50.7Z"/>
        <path class="cls-2" d="M306.36,334.66c1.18-1.24,2.88-2.26,5.12-3.07,2.23-.81,4.46-1.21,6.7-1.21,2.48,0,4.69.36,6.65,1.07,1.95.71,3.6,1.67,4.93,2.89,1.33,1.21,2.34,2.6,3.02,4.19.68,1.58,1.03,3.27,1.03,5.07,0,2.11-.42,4.06-1.25,5.86-.84,1.8-2.05,3.35-3.63,4.65-1.58,1.3-3.48,2.31-5.72,3.02-2.23.71-4.71,1.07-7.44,1.07-4.9,0-9.61-1.11-14.14-3.35-4.52-2.23-8.37-5.4-11.54-9.49l6.79-6.14c3.04,3.35,6.05,5.86,9.03,7.54,2.97,1.67,6.05,2.51,9.21,2.51,2.36,0,4.12-.53,5.3-1.58,1.18-1.05,1.77-2.36,1.77-3.91,0-1.3-.47-2.39-1.4-3.26-.93-.87-2.26-1.3-4-1.3-1.05,0-2.12.22-3.21.65-1.09.43-1.97.96-2.65,1.58l-4.56-6.79Z"/>
        <path class="cls-2" d="M364.23,328.24l-10.24,6.05-17.02-25.96c-1.06-1.55-1.82-2.85-2.28-3.91s-.7-2.05-.7-2.98c0-1.61.68-2.9,2.05-3.86,1.37-.96,3.16-1.44,5.4-1.44l1.58,2.14c.61.81,1.3,1.44,2.05,1.91.75.46,1.55.7,2.42.7,1.8,0,3.31-.67,4.56-2s1.86-3.43,1.86-6.28c0-2.48-.37-4.65-1.12-6.51-.75-1.86-1.52-3.32-2.33-4.37h-19.44v-8.75h41.49v8.75h-10.42c.68.93,1.42,2.42,2.23,4.46.8,2.05,1.21,4.56,1.21,7.54,0,2.67-.46,5.01-1.39,7.02-.93,2.02-2.11,3.69-3.54,5.02-1.43,1.34-3.04,2.34-4.84,3.03-1.8.68-3.54,1.02-5.21,1.02-.25,0-.47-.03-.65-.09l14.33,18.51Z"/>
        <path class="cls-2" d="M411.67,281.72v-8.75h23.07v8.75h-7.72v50.7h-11.45v-26.89c-.87.43-2.14.79-3.81,1.07-1.68.28-3.54.42-5.58.42-1.06,0-2.14-.09-3.26-.28-1.12-.19-2.22-.42-3.31-.7-1.09-.28-2.1-.59-3.07-.93-.97-.34-1.78-.7-2.47-1.07-2.1,1.24-3.88,2.39-5.3,3.44-1.42,1.06-2.58,2.05-3.44,2.98-.87.93-1.48,1.83-1.86,2.7s-.56,1.8-.56,2.79c0,2.17.71,3.8,2.14,4.88,1.42,1.09,3.1,1.63,5.02,1.63,1.74,0,2.95-.25,3.63-.75l-2.42-7.44c.87-.93,1.92-1.69,3.16-2.28,1.24-.59,2.67-.89,4.28-.89,2.48,0,4.37.82,5.67,2.47,1.31,1.64,1.95,3.49,1.95,5.53,0,1.61-.26,2.98-.79,4.1-.53,1.11-1.04,1.92-1.54,2.42l5.4,12.28-9.67,3.54-3.16-11.26c-.37.25-1.21.53-2.52.84-1.3.31-2.76.46-4.37.46-2.35,0-4.65-.31-6.88-.93-2.23-.62-4.22-1.6-5.95-2.93-1.73-1.33-3.13-3.02-4.18-5.07-1.06-2.05-1.58-4.5-1.58-7.35,0-1.61.2-3.13.6-4.56.41-1.42,1.13-2.84,2.19-4.23,1.05-1.4,2.52-2.84,4.42-4.33,1.89-1.49,4.33-3.1,7.3-4.84,1.92-1.12,3.52-2.14,4.79-3.07,1.27-.93,2.28-1.83,3.03-2.7s1.25-1.72,1.54-2.56c.27-.84.42-1.75.42-2.75,0-1.49-.45-2.71-1.35-3.67-.9-.96-2.16-1.44-3.76-1.44-1.43,0-2.64.46-3.63,1.4-.99.93-1.49,2.08-1.49,3.44s.28,2.39.84,3.26c.56.87,1.24,1.61,2.05,2.23l-7.35,5.03c-1.99-1.3-3.54-2.89-4.65-4.75-1.12-1.86-1.67-4-1.67-6.42,0-1.74.39-3.4,1.16-4.98.77-1.58,1.86-2.98,3.26-4.19,1.4-1.21,3.1-2.17,5.12-2.89,2.01-.71,4.23-1.07,6.65-1.07,2.6,0,4.93.42,6.97,1.25,2.05.84,3.76,1.92,5.16,3.26,1.39,1.33,2.46,2.87,3.21,4.6.75,1.74,1.12,3.53,1.12,5.4s-.37,3.78-1.12,5.58c-.75,1.8-1.92,3.57-3.54,5.3,1.24.31,2.48.47,3.72.47,1.92,0,3.73-.25,5.4-.75s3.04-1.18,4.09-2.05v-13.49h-3.91Z"/>
        <path class="cls-2" d="M440.51,281.72h-7.63v-8.75h26.79v8.75h-7.73v50.7h-11.44v-50.7Z"/>
        <path class="cls-2" d="M612.53,329.91v8.75h-4.56c-2.79,0-4.78.5-5.95,1.49-1.18.99-1.77,2.23-1.77,3.72,0,1.61.64,2.92,1.91,3.91,1.27.99,3.09,1.49,5.44,1.49,2.1,0,4.1-.31,6-.93,1.89-.62,3.92-1.64,6.09-3.07l4.09,7.91c-2.36,1.61-4.94,2.85-7.77,3.72-2.82.87-5.82,1.3-8.98,1.3-5.39,0-9.75-1.29-13.07-3.86-3.31-2.58-4.97-6.25-4.97-11.02,0-3.97,1.4-7.2,4.19-9.68,2.79-2.48,6.94-3.72,12.46-3.72h6.88Z"/>
        <path class="cls-2" d="M626.02,281.72h-7.63v-8.75h6.97c-.31-.62-.6-1.4-.88-2.32-.28-.93-.42-1.95-.42-3.07,0-2.36.67-4.5,2-6.42,1.33-1.92,3.22-3.58,5.67-4.98,2.45-1.4,5.38-2.48,8.79-3.26,3.41-.77,7.16-1.16,11.26-1.16,6.7,0,12.82.67,18.37,2,5.55,1.33,10.52,3.04,14.89,5.12,4.37,2.08,8.18,4.4,11.44,6.98,3.26,2.57,6,5.07,8.24,7.49l.93,1.12-6.6,5.21-1.21-1.21c-2.18-1.98-4.72-4.02-7.63-6.1-2.92-2.08-6.24-3.95-9.95-5.63-3.73-1.67-7.86-3.04-12.42-4.1-4.56-1.05-9.54-1.58-14.94-1.58-2.92,0-5.44.25-7.58.74-2.14.5-3.92,1.18-5.35,2.05-1.43.87-2.48,1.88-3.16,3.02-.69,1.15-1.03,2.34-1.03,3.58,0,.5.01.94.05,1.35.03.41.11.79.24,1.16h9.12v8.75h-7.73v50.7h-11.44v-50.7Z"/>
        <path class="cls-2" d="M47.55,272.98v26.51c-1.06.87-2.37,1.55-3.95,2.05-1.58.5-3.56.75-5.91.75-.87,0-1.75-.05-2.65-.14-.9-.09-1.75-.29-2.56-.6.5-1.05.9-2.25,1.21-3.58.31-1.33.46-2.74.46-4.23,0-2.98-.41-5.49-1.21-7.54-.81-2.05-1.55-3.53-2.24-4.46h9.67v-8.75H0v8.75h19.07c.8,1.06,1.58,2.51,2.33,4.37.75,1.86,1.12,4.03,1.12,6.51,0,2.85-.61,4.99-1.82,6.42-1.21,1.42-2.75,2.14-4.6,2.14-1.74,0-3.23-.87-4.46-2.6l-1.58-2.05c-2.24,0-4.02.46-5.35,1.4-1.33.93-2,2.2-2,3.81,0,.99.22,2.02.65,3.07.43,1.05,1.18,2.36,2.23,3.91l17.03,25.58,10.24-6.05-14.33-18.14h.65c1.18,0,2.37-.14,3.58-.42,1.21-.28,2.37-.76,3.49-1.44,1.67,1.06,3.66,1.89,5.95,2.51,2.29.62,4.56.93,6.79.93,2.11,0,3.84-.12,5.21-.37,1.37-.25,2.48-.56,3.35-.93v22.05h11.44v-50.7h7.73v-8.75h-19.16Z"/>
        <path class="cls-2" d="M88.85,272.98v8.75h33.49v25.4c0,2.23-.81,4.06-2.42,5.49-1.61,1.43-3.6,2.14-5.95,2.14-2.86,0-5.15-.7-6.88-2.09-1.74-1.4-2.61-3.61-2.61-6.65,0-2.79.82-4.93,2.46-6.42,1.65-1.49,3.9-2.23,6.75-2.23.51,0,.96.1,1.44.15v-8.86c-1.18-.19-2.48-.31-3.95-.31-2.73,0-5.23.39-7.49,1.16-2.26.77-4.2,1.91-5.81,3.4-1.61,1.49-2.87,3.3-3.77,5.44-.9,2.14-1.35,4.55-1.35,7.21,0,3.04.52,5.71,1.58,8,1.05,2.3,2.5,4.2,4.33,5.72,1.82,1.52,3.93,2.67,6.32,3.44,2.39.78,4.89,1.16,7.49,1.16s4.73-.33,6.37-.98,2.8-1.28,3.49-1.91v11.44h11.44v-50.7h7.63v-8.75h-52.57Z"/>
        <path class="cls-2" d="M313.71,272.98v26.51c-1.06.87-2.37,1.55-3.95,2.05-1.58.5-3.55.75-5.91.75-.87,0-1.75-.05-2.65-.14-.9-.09-1.75-.29-2.56-.6.5-1.05.9-2.25,1.21-3.58.31-1.33.46-2.74.46-4.23,0-2.98-.41-5.49-1.21-7.54-.8-2.05-1.55-3.53-2.23-4.46h9.66v-8.75h-40.37v8.75h19.07c.81,1.06,1.58,2.51,2.33,4.37s1.12,4.03,1.12,6.51c0,2.85-.6,4.99-1.81,6.42-1.22,1.42-2.75,2.14-4.61,2.14-1.74,0-3.23-.87-4.46-2.6l-1.58-2.05c-2.24,0-4.02.46-5.35,1.4-1.33.93-2,2.2-2,3.81,0,.99.22,2.02.65,3.07.43,1.05,1.18,2.36,2.24,3.91l17.02,25.58,10.24-6.05-14.33-18.14h.65c1.18,0,2.37-.14,3.58-.42,1.21-.28,2.37-.76,3.48-1.44,1.68,1.06,3.66,1.89,5.95,2.51,2.29.62,4.56.93,6.79.93,2.11,0,3.85-.12,5.21-.37,1.37-.25,2.48-.56,3.35-.93v22.05h11.44v-50.7h7.73v-8.75h-19.16Z"/>
        <path class="cls-2" d="M548.15,272.98v26.51c-1.06.87-2.37,1.55-3.95,2.05-1.58.5-3.55.75-5.91.75-.87,0-1.75-.05-2.65-.14-.9-.09-1.75-.29-2.56-.6.5-1.05.9-2.25,1.21-3.58.31-1.33.46-2.74.46-4.23,0-2.98-.41-5.49-1.21-7.54-.8-2.05-1.55-3.53-2.23-4.46h9.66v-8.75h-40.37v8.75h19.07c.81,1.06,1.58,2.51,2.33,4.37.75,1.86,1.12,4.03,1.12,6.51,0,2.85-.6,4.99-1.81,6.42-1.22,1.42-2.75,2.14-4.61,2.14-1.74,0-3.23-.87-4.46-2.6l-1.58-2.05c-2.24,0-4.02.46-5.35,1.4-1.33.93-2,2.2-2,3.81,0,.99.22,2.02.65,3.07.43,1.05,1.18,2.36,2.24,3.91l17.02,25.58,10.24-6.05-14.33-18.14h.65c1.18,0,2.37-.14,3.58-.42,1.21-.28,2.37-.76,3.48-1.44,1.68,1.06,3.66,1.89,5.95,2.51,2.29.62,4.56.93,6.79.93,2.11,0,3.85-.12,5.21-.37,1.37-.25,2.48-.56,3.35-.93v22.05h11.44v-50.7h7.73v-8.75h-19.16Z"/>
        <path class="cls-2" d="M601.09,272.98v28.1h-15.07v-19.35h7.9v-8.75h-28.46v8.75h9.21v19.35h-.46c-1.24,0-2.47.54-3.68,1.63-1.21,1.09-1.81,2.75-1.81,4.98,0,1.8.31,3.4.93,4.79.62,1.4,1.47,2.58,2.56,3.54,1.08.96,2.31,1.71,3.67,2.23,1.36.53,2.79.79,4.27.79s2.82-.22,3.82-.65c.99-.43,1.67-.84,2.05-1.21v-7.26h15.07v22.51h11.45v-50.7h7.72v-8.75h-19.16Z"/>
        <path class="cls-2" d="M683.7,300.47c1.12-.84,2.42-1.46,3.91-1.86,1.49-.41,3.07-.6,4.75-.6h12.75v-16.28h10.97v-8.75h-73.68v8.75h51.35v7.35h-5.12c-2.79,0-5.41.39-7.86,1.16s-4.61,1.94-6.46,3.49c-1.86,1.55-3.34,3.49-4.42,5.81-1.09,2.33-1.63,5.04-1.63,8.14,0,1.86.17,3.58.52,5.16.34,1.58.85,3.06,1.54,4.42h0c.49,1.06,2.47,4.87,6.15,6.98,3.78,2.54,8.34,3.81,13.67,3.81h.88c.28,0,.58-.03.89-.09-1.61,2.98-3.58,5.36-5.91,7.16-2.33,1.8-4.86,2.7-7.58,2.7-4.16,0-6.24-1.86-6.24-5.58,0-1.55.37-2.9,1.12-4.05.29-.44.55-.81.81-1.18-1.53-.87-3.76-2.82-6.5-6.87l-.17.18c-1.05,1.12-2.18,2.02-3.39,2.7-1.21.68-2.62,1.02-4.24,1.02s-3.02-.48-4.23-1.44c-1.21-.96-1.82-2.4-1.82-4.33,0-1.67.5-2.96,1.49-3.86.99-.9,2.2-1.35,3.63-1.35.5,0,.99.03,1.49.09.49.06.99.22,1.48.46l2.24-7.72c-.44-.37-1.24-.71-2.42-1.02-1.18-.31-2.45-.46-3.82-.46-1.8,0-3.55.29-5.26.88-1.71.59-3.21,1.46-4.51,2.6-1.3,1.15-2.34,2.56-3.12,4.23-.78,1.68-1.16,3.6-1.16,5.77,0,2.36.41,4.41,1.21,6.14.8,1.74,1.88,3.18,3.21,4.33s2.84,2,4.52,2.56c1.67.56,3.38.84,5.11.84.87,0,1.83-.08,2.89-.23,1.05-.16,1.82-.42,2.32-.79-.12.37-.22.79-.27,1.25-.07.46-.1.94-.1,1.44,0,2.05.42,3.85,1.26,5.4.84,1.55,1.97,2.85,3.39,3.91,1.42,1.05,3.07,1.86,4.93,2.42,1.86.56,3.78.84,5.77.84,4.46,0,8.7-1.35,12.7-4.05,4-2.7,7.3-6.41,9.91-11.12l4.84,12.65,10.6-3.63-9.12-17.86c.62-.56,1.23-1.43,1.82-2.6.59-1.18.88-2.58.88-4.19,0-2.42-.76-4.48-2.28-6.19-1.52-1.71-3.61-2.56-6.27-2.56-1.61,0-3.07.29-4.37.88-1.31.59-2.36,1.32-3.16,2.19l2.7,8.1c-.5.37-1.29.68-2.37.93-1.09.25-2.22.37-3.4.37-1.37,0-2.67-.2-3.91-.6-1.24-.4-2.34-1.05-3.3-1.95-.96-.9-1.74-2.03-2.33-3.4-.59-1.37-.88-2.98-.88-4.84,0-1.74.33-3.24.97-4.51.65-1.27,1.54-2.33,2.65-3.16Z"/>
      </g>
    </g>
  </g>
</svg>