<svg width="135" height="36" viewBox="0 0 135 36" fill="none" xmlns="http://www.w3.org/2000/svg"><g filter="url(#filter0_d_2035_8523)"><path d="M11.0553 20.0509C11.0553 21.2639 10.04 22.2467 8.78599 22.2467C7.53287 22.2467 6.51669 21.2639 6.51669 20.0509C6.51669 18.8389 7.53287 17.8552 8.78599 17.8552C9.38664 17.8547 9.96396 18.0878 10.3958 18.5053C10.6053 18.7079 10.7717 18.9508 10.885 19.2194C10.9984 19.4879 11.0563 19.7766 11.0553 20.0681V20.0509ZM10.1914 20.0509C10.1914 19.3008 9.56181 18.6918 8.78599 18.6918C8.01016 18.6918 7.38147 19.3008 7.38147 20.0518C7.38147 20.802 8.01016 21.4101 8.78599 21.4101C9.55582 21.4101 10.1819 20.8114 10.1914 20.0672V20.0509V20.0509ZM17.9154 3.41913V32.4846C17.9154 32.7156 17.722 32.902 17.4834 32.902C17.3708 32.9039 17.262 32.8609 17.1811 32.7827C17.1001 32.7044 17.0535 32.5972 17.0514 32.4846V28.8921H12.6942V31.1759C12.6942 32.0997 11.9201 32.8481 10.9646 32.8481H6.64243C5.68698 32.8481 4.91287 32.0988 4.91287 31.175V28.8749H2.82063C2.70803 28.8768 2.59929 28.8339 2.51831 28.7556C2.43732 28.6773 2.3907 28.5701 2.38867 28.4575V24.0164C2.38867 23.7855 2.58199 23.599 2.82063 23.599H4.19094V18.5797C4.19094 16.5166 5.82213 14.7956 7.94772 14.6193L8.40962 12.587H7.38232C7.32642 12.5879 7.27089 12.5778 7.21891 12.5572C7.16693 12.5366 7.11952 12.506 7.0794 12.467C7.03928 12.4281 7.00722 12.3816 6.98508 12.3303C6.96294 12.279 6.95114 12.2238 6.95036 12.1679C6.95036 11.9369 7.14367 11.7504 7.38232 11.7504H8.6055L9.18459 9.24078C9.57635 7.40173 11.2512 6.0819 13.192 6.08361H17.0523V3.41828C17.0523 3.18733 17.2456 3 17.4842 3C17.7237 3 17.9171 3.18733 17.9171 3.41828L17.9154 3.41913ZM11.8302 28.8921H5.77765V31.1759C5.77765 31.6378 6.16513 32.0116 6.64157 32.0116H10.9646C11.4428 32.0116 11.8294 31.6369 11.8294 31.175V28.8749V28.8921H11.8302ZM17.0523 24.433H3.2526V28.0598H17.0497V24.433H17.0523ZM13.9995 9.72492C13.186 9.72492 12.482 10.2732 12.3093 11.0422L11.5052 14.5971H17.0514V9.72492H13.9995ZM13.1911 6.93983C11.6686 6.93556 10.3513 7.96029 10.0263 9.39902L8.73039 15.1078C8.70667 15.2035 8.65069 15.2882 8.57186 15.3476C8.49304 15.4069 8.39617 15.4373 8.29757 15.4337C6.50728 15.4337 5.05572 16.8382 5.05572 18.5703V23.5896H17.0514V15.4294H10.9646C10.8999 15.4309 10.8357 15.4182 10.7766 15.392C10.7174 15.3658 10.6648 15.3269 10.6225 15.278C10.581 15.23 10.5513 15.173 10.5357 15.1115C10.5201 15.0501 10.5191 14.9858 10.5327 14.9239L11.453 10.8583C11.7208 9.70952 12.7729 8.89093 13.9909 8.88409H17.0429V6.91845L13.1911 6.93983V6.93983Z" fill="#111111"></path></g><path d="M11.0553 20.0509C11.0553 21.2639 10.04 22.2467 8.78599 22.2467C7.53287 22.2467 6.51669 21.2639 6.51669 20.0509C6.51669 18.8389 7.53287 17.8552 8.78599 17.8552C9.38664 17.8547 9.96396 18.0878 10.3958 18.5053C10.6053 18.7079 10.7717 18.9508 10.885 19.2194C10.9984 19.4879 11.0563 19.7766 11.0553 20.0681V20.0509ZM10.1914 20.0509C10.1914 19.3008 9.56181 18.6918 8.78599 18.6918C8.01016 18.6918 7.38147 19.3008 7.38147 20.0518C7.38147 20.802 8.01016 21.4101 8.78599 21.4101C9.55582 21.4101 10.1819 20.8114 10.1914 20.0672V20.0509V20.0509ZM17.9154 3.41913V32.4846C17.9154 32.7156 17.722 32.902 17.4834 32.902C17.3708 32.9039 17.262 32.8609 17.1811 32.7827C17.1001 32.7044 17.0535 32.5972 17.0514 32.4846V28.8921H12.6942V31.1759C12.6942 32.0997 11.9201 32.8481 10.9646 32.8481H6.64243C5.68698 32.8481 4.91287 32.0988 4.91287 31.175V28.8749H2.82063C2.70803 28.8768 2.59929 28.8339 2.51831 28.7556C2.43732 28.6773 2.3907 28.5701 2.38867 28.4575V24.0164C2.38867 23.7855 2.58199 23.599 2.82063 23.599H4.19094V18.5797C4.19094 16.5166 5.82213 14.7956 7.94772 14.6193L8.40962 12.587H7.38232C7.32642 12.5879 7.27089 12.5778 7.21891 12.5572C7.16693 12.5366 7.11952 12.506 7.0794 12.467C7.03928 12.4281 7.00722 12.3816 6.98508 12.3303C6.96294 12.279 6.95114 12.2238 6.95036 12.1679C6.95036 11.9369 7.14367 11.7504 7.38232 11.7504H8.6055L9.18459 9.24078C9.57635 7.40173 11.2512 6.0819 13.192 6.08361H17.0523V3.41828C17.0523 3.18733 17.2456 3 17.4842 3C17.7237 3 17.9171 3.18733 17.9171 3.41828L17.9154 3.41913ZM11.8302 28.8921H5.77765V31.1759C5.77765 31.6378 6.16513 32.0116 6.64157 32.0116H10.9646C11.4428 32.0116 11.8294 31.6369 11.8294 31.175V28.8749V28.8921H11.8302ZM17.0523 24.433H3.2526V28.0598H17.0497V24.433H17.0523ZM13.9995 9.72492C13.186 9.72492 12.482 10.2732 12.3093 11.0422L11.5052 14.5971H17.0514V9.72492H13.9995ZM13.1911 6.93983C11.6686 6.93556 10.3513 7.96029 10.0263 9.39902L8.73039 15.1078C8.70667 15.2035 8.65069 15.2882 8.57186 15.3476C8.49304 15.4069 8.39617 15.4373 8.29757 15.4337C6.50728 15.4337 5.05572 16.8382 5.05572 18.5703V23.5896H17.0514V15.4294H10.9646C10.8999 15.4309 10.8357 15.4182 10.7766 15.392C10.7174 15.3658 10.6648 15.3269 10.6225 15.278C10.581 15.23 10.5513 15.173 10.5357 15.1115C10.5201 15.0501 10.5191 14.9858 10.5327 14.9239L11.453 10.8583C11.7208 9.70952 12.7729 8.89093 13.9909 8.88409H17.0429V6.91845L13.1911 6.93983V6.93983Z" fill="#203254" stroke="#203254" stroke-width="0.512195"></path><path fill-rule="evenodd" clip-rule="evenodd" d="M24.6444 7.82422C25.2158 7.82422 25.6794 8.28783 25.6794 8.85922V31.4025C25.6794 31.677 25.5703 31.9402 25.3762 32.1343C25.1821 32.3284 24.9189 32.4375 24.6444 32.4375C24.3699 32.4375 24.1066 32.3284 23.9125 32.1343C23.7184 31.9402 23.6094 31.677 23.6094 31.4025V8.85922C23.6094 8.28783 24.073 7.82422 24.6444 7.82422Z" fill="#1FD8AA" stroke="#1FD8AA" stroke-width="0.365854"></path><path fill-rule="evenodd" clip-rule="evenodd" d="M31.7166 14.5742C32.2889 14.5742 32.7516 15.0378 32.7516 15.6092V31.9656C32.7516 32.2401 32.6426 32.5034 32.4485 32.6975C32.2544 32.8916 31.9911 33.0006 31.7166 33.0006C31.4421 33.0006 31.1789 32.8916 30.9848 32.6975C30.7907 32.5034 30.6816 32.2401 30.6816 31.9656V15.6092C30.6816 15.0378 31.1453 14.5742 31.7166 14.5742Z" fill="#0EC0D6" stroke="#0EC0D6" stroke-width="0.365854"></path><path fill-rule="evenodd" clip-rule="evenodd" d="M45.8631 15.5391C46.4345 15.5391 46.8981 16.0018 46.8981 16.5741V31.8989C46.8981 32.1734 46.7891 32.4366 46.595 32.6307C46.4009 32.8248 46.1376 32.9339 45.8631 32.9339C45.5886 32.9339 45.3254 32.8248 45.1313 32.6307C44.9372 32.4366 44.8281 32.1734 44.8281 31.8989V16.5741C44.8281 16.0027 45.2917 15.5391 45.8631 15.5391Z" fill="#0DB8FF" stroke="#0DB8FF" stroke-width="0.365854"></path><path fill-rule="evenodd" clip-rule="evenodd" d="M38.7909 19.3984C39.3622 19.3984 39.8259 19.862 39.8259 20.4334V31.6345C39.8259 31.909 39.7168 32.1723 39.5227 32.3664C39.3286 32.5605 39.0654 32.6695 38.7909 32.6695C38.5164 32.6695 38.2531 32.5605 38.059 32.3664C37.8649 32.1723 37.7559 31.909 37.7559 31.6345V20.4334C37.7559 19.862 38.2186 19.3984 38.7909 19.3984Z" fill="#24B1A4" stroke="#24B1A4" stroke-width="0.365854"></path><path fill-rule="evenodd" clip-rule="evenodd" d="M56.6903 16.2806V14.297C56.6903 11.1552 58.9964 8.95865 62.2741 8.98858C63.3357 9.01938 64.4896 9.26316 65.2782 9.68999L65.1867 12.7411C64.5195 12.2227 63.7 11.9482 62.9413 11.9482C61.3332 11.9174 60.1494 13.1072 60.1494 14.8162V16.2806H64.398L64.3672 18.8732H60.1503V31.9313H56.6903V18.8732H54.5664L54.5963 16.2806H56.6903ZM70.4677 9.29395V31.9313H66.9778V9.29395H70.4677ZM81.7843 15.5784C87.4588 15.5784 89.7649 19.3009 89.3398 25.1585H77.1422C77.6879 27.6596 79.5997 29.2155 82.1487 29.2155C83.9082 29.2155 85.5163 28.5449 86.6992 27.3243L88.5511 29.307C86.973 31.046 84.6669 32.0528 81.875 32.0528C76.8984 32.0528 73.6215 28.728 73.6215 23.8464C73.6215 18.9348 76.9899 15.6091 81.7843 15.5784ZM77.0806 22.5958H86.3058C86.1843 19.9715 84.4548 18.3857 81.8151 18.3857C79.2661 18.3857 77.4749 20.0023 77.0806 22.5958ZM98.9875 15.5784C104.662 15.5784 106.968 19.3009 106.543 25.1585H94.3454C94.8911 27.6596 96.8029 29.2155 99.3519 29.2155C101.111 29.2155 102.719 28.5449 103.903 27.3243L105.754 29.307C104.176 31.046 101.871 32.0528 99.0782 32.0528C94.1025 32.0528 90.8247 28.728 90.8247 23.8464C90.8247 18.9348 94.1931 15.6091 98.9875 15.5784ZM94.2838 22.5958H103.509C103.388 19.9715 101.658 18.3857 99.0183 18.3857C96.4693 18.3857 94.679 20.0023 94.2838 22.5958ZM117.799 28.2087L118.68 30.8938C117.405 31.6567 116.069 32.0836 114.704 32.0836C112.277 32.0836 110.183 30.6808 110.183 27.3551V18.9348H107.907V16.3106H110.183V11.8566H113.642V16.3106H118.406V18.9348H113.642V26.7144C113.642 28.3918 114.279 28.911 115.371 28.911C116.1 28.911 116.859 28.6664 117.799 28.2096V28.2087ZM127.113 21.2529L130.784 15.7007H134.608L129.419 23.6026L134.971 31.9313H130.966L127.112 25.9822L122.985 31.9313H119.102L124.806 23.6026L119.496 15.7007H123.501L127.112 21.2529H127.113Z" fill="#203254"></path><defs><filter id="filter0_d_2035_8523" x="0.19355" y="0.804878" width="19.9195" height="34.2926" filterUnits="userSpaceOnUse" color-interpolation-filters="sRGB"><feFlood flood-opacity="0" result="BackgroundImageFix"></feFlood><feColorMatrix in="SourceAlpha" type="matrix" values="0 0 0 0 0 0 0 0 0 0 0 0 0 0 0 0 0 0 127 0" result="hardAlpha"></feColorMatrix><feOffset></feOffset><feGaussianBlur stdDeviation="1.09756"></feGaussianBlur><feComposite in2="hardAlpha" operator="out"></feComposite><feColorMatrix type="matrix" values="0 0 0 0 0 0 0 0 0 0 0 0 0 0 0 0 0 0 0.0782099 0"></feColorMatrix><feBlend mode="normal" in2="BackgroundImageFix" result="effect1_dropShadow_2035_8523"></feBlend><feBlend mode="normal" in="SourceGraphic" in2="effect1_dropShadow_2035_8523" result="shape"></feBlend></filter></defs></svg>