<svg id="Layer_1" data-name="Layer 1" xmlns="http://www.w3.org/2000/svg" viewBox="0 0 121 91"><defs><style>.cls-1{fill:#fdfdfd;}.cls-2{fill:#ed3139;}.cls-3{fill:#f69432;}.cls-4{fill:#f05c34;}.cls-5{fill:#0f55a5;}.cls-6{fill:#ec2a53;}.cls-7{fill:#0e5dab;}.cls-8{fill:#faaf34;}.cls-9{fill:#f58832;}.cls-10{fill:#ac2c7a;}.cls-11{fill:#cc266b;}.cls-12{fill:#f37935;}.cls-13{fill:#9b3783;}.cls-14{fill:#534ea0;}.cls-15{fill:#744696;}.cls-16{fill:#131a1d;}</style></defs><rect class="cls-1" width="121" height="91"/><path class="cls-2" d="M70.17,22.44a53.41,53.41,0,0,1-3,7.52,12.77,12.77,0,0,1-3.07,3.61A12.92,12.92,0,0,1,57.92,37c-2.09.39-4.2.89-6.38.31a4,4,0,0,1-3.14-3.8,11.66,11.66,0,0,1,1-4.6c1-2.91,2-5.77,3-8.66a15.82,15.82,0,0,1,5.72-7.59,16.69,16.69,0,0,1,9.44-3A5.24,5.24,0,0,1,69.7,10a4.23,4.23,0,0,0-.14,1,24.43,24.43,0,0,1-.12,3.63.74.74,0,0,0,.12.52,3.36,3.36,0,0,1,.21,2.31,3,3,0,0,0,0,1.34,6.91,6.91,0,0,1,.22,3C70,22,69.91,22.29,70.17,22.44ZM54,33.22c0,1.86,1.08,2.72,2.72,2.19a6.91,6.91,0,0,0,4.28-4c.73-1.68,1.25-3.45,1.85-5.18,1.1-3.15,2.12-6.32,3.33-9.43A7.43,7.43,0,0,0,67,13.57a1.65,1.65,0,0,0-1.26-1.65,3.22,3.22,0,0,0-1.48.05,6.63,6.63,0,0,0-3.51,2.66,14.66,14.66,0,0,0-1.55,3.7c-.8,2.17-1.51,4.37-2.34,6.54-.68,1.78-1.17,3.62-2,5.37A7.07,7.07,0,0,0,54,33.22Z"/><path class="cls-2" d="M74.54,56.17a10.61,10.61,0,0,1-3.26,4.42,2.09,2.09,0,0,1-3.18-.35,4.53,4.53,0,0,1-.76-1.2,6.16,6.16,0,0,1-.61-1.34c-.67,1-1.24,1.88-1.89,2.72a5.93,5.93,0,0,1-2.05,1.87,2.15,2.15,0,0,1-2.74-.63,5.8,5.8,0,0,1-.83-1.31c-.2-.48-.42-1-.64-1.47a10,10,0,0,0-1.32,1.66,10,10,0,0,1-1.7,1.92l-.46-1.54a26.76,26.76,0,0,1,2.45-2.43,2,2,0,0,0,.85-1.66,7,7,0,0,1,.88-3.12,11.42,11.42,0,0,1,1.93-3,2.61,2.61,0,0,1,1.72-.87c.63,0,1,.25.92.88A7.09,7.09,0,0,1,62.71,54c-.45.72-.91,1.42-1.35,2.13a3.5,3.5,0,0,0-.29.54,1.68,1.68,0,0,0,.1,1.92,2,2,0,0,0,2.21.34c1.33-.45,2.05-1.57,2.9-2.56a.78.78,0,0,0,.14-.58,23.17,23.17,0,0,1,.82-6.93,30,30,0,0,1,3.33-8.3A7.8,7.8,0,0,1,72,38.78c.81-.73,1.24-.59,1.5.45a8.58,8.58,0,0,1,.09,3.53,26.51,26.51,0,0,1-4,10.21,3.62,3.62,0,0,0-.24,4,1.65,1.65,0,0,0,2.85.42c.5-.52.92-1.11,1.38-1.68C73.84,56,74.25,56,74.54,56.17Z"/><path class="cls-3" d="M32.06,37.41c-1.44.06-2.88.19-4.15-.73a4.86,4.86,0,0,1-2.1-3.84A9.06,9.06,0,0,1,26,30.41c.06-.24.32-.64-.2-.77,0-.56.41-1,.27-1.61.63-.05.89-.44,1.1-1,.83-2.15,1.52-4.35,2.27-6.52A17.48,17.48,0,0,1,31,17.05c.26.43.43.84,0,1.3a.64.64,0,0,0-.09.71,8.76,8.76,0,0,1,.58,3.71c.11,1.87.17,3.76.22,5.64a2.48,2.48,0,0,0,.4,1.8c0,.31,0,.62,0,.93a3.25,3.25,0,0,0,.73,2.7c-.34.24-1,.39-.76.91C32.36,35.66,31.92,36.53,32.06,37.41Z"/><path class="cls-4" d="M46,31A39.2,39.2,0,0,1,44.26,36a6.27,6.27,0,0,1-2.47,2.32c-.31.21-.66.37-1,.55a4.39,4.39,0,0,1-.43-2.37,2.48,2.48,0,0,0-.07-1.21,1.71,1.71,0,0,1,0-1.51.94.94,0,0,0-.19-1.18,1.76,1.76,0,0,1-.41-.63L41,27.62l-1.86.81a.76.76,0,0,1,0-.83.57.57,0,0,0-.21-.86,11.33,11.33,0,0,0,2.84-1.91,4.33,4.33,0,0,0,.9-2.31c.11-.46-.39-.12-.59-.2-.49-.22-.3-.8-.62-1.11a23.8,23.8,0,0,1,4-1.12,17.17,17.17,0,0,0-.11,3.79,26.5,26.5,0,0,1,.14,5,7.4,7.4,0,0,0,.13,1.81C45.61,30.94,45.8,31,46,31Z"/><path class="cls-5" d="M92,25.56a18.68,18.68,0,0,1-3.85,7.38,1.66,1.66,0,0,1-.21.16.44.44,0,0,1-.19-.34,9.47,9.47,0,0,1-.13-2.86c.21-1.81-.29-3.58-.28-5.38A7.29,7.29,0,0,0,87.14,22L88,19.35c.06-.18.27-.46-.2-.41.17-.56-.19-1-.24-1.57.41-.09,1,.22,1.19-.37.79-2,0-4.66-2.54-4.48V10.27a8.57,8.57,0,0,1,4.63-.68,2.43,2.43,0,0,0,0,1.2,8.22,8.22,0,0,1,.14,2.15c-.13,1.31-.06,2.62-.08,3.93a6.07,6.07,0,0,0,.36,3.07.88.88,0,0,1,0,.53A7.14,7.14,0,0,0,91.37,23a.51.51,0,0,0,.44.45.3.3,0,0,1,.24.36c0,.17-.14.29-.33.24-.4-.11-.42.2-.45.42C91.19,25,91.32,25.42,92,25.56Z"/><path class="cls-6" d="M55.1,60.92l.46,1.54c-.08.56-.57.82-.9,1.15a10.34,10.34,0,0,1-2.51,2,2.28,2.28,0,0,1-1.77.17c.31-.17.23-.46.23-.73,0-1.47,0-2.95,0-4.43a18.51,18.51,0,0,1,.1-2.78c.07-.4.34-.84.08-1.25a1.31,1.31,0,0,1-.1-1.17,3.11,3.11,0,0,0-.24-2.14c.61-1.44,1.51-2.72,2.16-4.14.1-.24.35-.52,0-.72s-.51.07-.69.28c-.5.58-1,1.17-1.48,1.75a8,8,0,0,0,.12-2c0-.37-.08-.74-.56-.81,1.3-1.91,2.85-3.62,4.24-5.46a.35.35,0,0,1,.34.28A7.6,7.6,0,0,1,55,44.56c-.15,1.07,0,2.16-.3,3.2-.12.5,0,.62.48.63a56.1,56.1,0,0,0-2.62,5.87,23.05,23.05,0,0,0-1.19,5.26,4.07,4.07,0,0,0,.11,1.55,1.4,1.4,0,0,0,2.39.89A15.66,15.66,0,0,0,55.1,60.92Z"/><path class="cls-7" d="M92,25.56c-.63-.14-.76-.59-.68-1.14,0-.22,0-.53.45-.42.19.05.3-.07.33-.24a.3.3,0,0,0-.24-.36.51.51,0,0,1-.44-.45,7.14,7.14,0,0,1-.17-2.48.88.88,0,0,0,0-.53,6.07,6.07,0,0,1-.36-3.07c0-1.31,0-2.62.08-3.93a8.22,8.22,0,0,0-.14-2.15,2.43,2.43,0,0,1,0-1.2,4.87,4.87,0,0,1,4.38,4.73A7.23,7.23,0,0,1,95,16.81c-.16.47,0,.66.52.55a2.53,2.53,0,0,0,1.87-1.51c.1-.19.17-.43.42-.33s.12.32.08.52a3.39,3.39,0,0,1-2.87,3,1.43,1.43,0,0,0-1.16,1.13C93.23,22,92.58,23.77,92,25.56Z"/><path class="cls-7" d="M35.61,48a1.62,1.62,0,0,0-1.44.41c-1.65,1.18-3,2.66-4.57,4-1,.87-2.06,1.68-3.11,2.48-.31.24-.69.53-1.12.32S25,54.43,25,54c0-.14,0-.28,0-.41a5.55,5.55,0,0,1,1.93-5.12c.38-.36.56-.93,1.18-1.18-.24.88-1.11,1.38-1.16,2.44.67-.6,1.25-1.08,1.81-1.61a25.92,25.92,0,0,1,5.57-3.95,2.14,2.14,0,0,1,1.21-.33c-.24.23-.66.33-.49.83C35.34,45.73,35.18,46.9,35.61,48Z"/><path class="cls-8" d="M87.43,48.36c.68-1.18,1.31-2.38,2-3.53A4.63,4.63,0,0,0,90,43a1.66,1.66,0,0,1,.81-1.2c.81-.52,1.37-.28,1.51.67a6.33,6.33,0,0,0,.89,2c1.54,2.86.78,5.33-1.14,7.64-.4.48-.71,1.05-1.38,1.29a3.64,3.64,0,0,0,3.13-.95,32.19,32.19,0,0,0,2.37-2.56,1.32,1.32,0,0,1-.14,1.64,26,26,0,0,1-3.59,4,3.62,3.62,0,0,1-2.59,1.18,9.71,9.71,0,0,1,.1-1.21,6.85,6.85,0,0,0-.15-2.34,3.7,3.7,0,0,0,1.54-3.57,21.59,21.59,0,0,0-1-3.31c0-.07-.11-.18-.17-.18s-.17.17-.25.28c-.71,1-1.21,2.17-2,3.14C87.84,49.1,88.06,48.52,87.43,48.36Z"/><path class="cls-9" d="M32.08,30.21a2.48,2.48,0,0,1-.4-1.8c-.05-1.88-.11-3.77-.22-5.64a8.76,8.76,0,0,0-.58-3.71.64.64,0,0,1,.09-.71c.41-.46.24-.87,0-1.3a10.07,10.07,0,0,1,3.16-3.92,15,15,0,0,1,0,2.75c-.17,1.51.42,3,.1,4.44a.37.37,0,0,0,0,.27,1.75,1.75,0,0,1,.38,1.63c0,.11.11.17.23.19C34.46,24,33.83,25.48,33.3,27c-.12.34-.26.67-.43,1.11h1.18c.31.52,1.07.67,1.15,1.39a8.81,8.81,0,0,1-2.34.27C32.51,29.79,32.22,29.84,32.08,30.21Z"/><path class="cls-10" d="M79.55,25.9a13.47,13.47,0,0,1-2.32.7,5.21,5.21,0,0,1-.43-1.82c0-1.6,0-3.21-.16-4.8-.09-.89.1-1.77-.08-2.68a17.11,17.11,0,0,1-.1-3.12c0-.69.32-1.38-.09-2.07a5.93,5.93,0,0,1,2.32-3A1.62,1.62,0,0,1,79,10c0,1.2.07,2.4.09,3.59,0,2.47.19,4.94.17,7.41a1.65,1.65,0,0,0,.3,1.08c-.82.62-.88,1.63-1.22,2.5-.14.33,0,.45.37.33a3.19,3.19,0,0,1,.54-.06A1.51,1.51,0,0,1,79.55,25.9Z"/><path class="cls-7" d="M35.83,61.07c-.79,2-1.58,4.09-2.38,6.14A2.71,2.71,0,0,1,33,68a.73.73,0,0,1-1.22.08,6.36,6.36,0,0,1-1.63-2.7c-.15-.46.16-.84.33-1.21,1.48-3.23,3-6.44,4.15-9.8a1.28,1.28,0,0,1,.14-.23,1.28,1.28,0,0,1,.72,1.41,6.82,6.82,0,0,0-.16,1.8,8.41,8.41,0,0,1,0,3C35.3,60.64,35.3,61,35.83,61.07Z"/><path class="cls-5" d="M35.83,61.07c-.53,0-.53-.43-.47-.79a8.41,8.41,0,0,0,0-3,6.82,6.82,0,0,1,.16-1.8,1.28,1.28,0,0,0-.72-1.41,31,31,0,0,0,1-3.66,3.39,3.39,0,0,0-.19-2.5c-.43-1.05-.27-2.22-.62-3.28-.17-.5.25-.6.49-.83l.28.1a.13.13,0,0,0,.07.05,6.15,6.15,0,0,1,1.84,2.24,5.24,5.24,0,0,1,.07,3.41,41.79,41.79,0,0,1-1.46,5.62c-.07.22-.26.49,0,.59s.33-.24.41-.43a48.18,48.18,0,0,1,2.9-5.27c.45.75.17,1.6.3,2.4a11.27,11.27,0,0,1-1,2c-.74,1.62-1.58,3.2-2.35,4.81C36.24,59.87,36.06,60.48,35.83,61.07Z"/><path class="cls-11" d="M76.37,12.11c.41.69.09,1.38.09,2.07a17.11,17.11,0,0,0,.1,3.12c.18.91,0,1.79.08,2.68.14,1.59.11,3.2.16,4.8a5.21,5.21,0,0,0,.43,1.82,21.82,21.82,0,0,1-3.57.85,4.48,4.48,0,0,1-.2-2.57c.14-.74.27-1.64-.58-2.21-.06,0,0-.22,0-.33.69-2.65,1.88-5.12,2.7-7.73A17.08,17.08,0,0,1,76.37,12.11Z"/><path class="cls-12" d="M34.91,22.41c-.12,0-.27-.08-.23-.19a1.75,1.75,0,0,0-.38-1.63.37.37,0,0,1,0-.27c.32-1.48-.27-2.93-.1-4.44a15,15,0,0,0,0-2.75,11.53,11.53,0,0,1,3.55-2.07,23.48,23.48,0,0,1,2.72-.79,5.18,5.18,0,0,0,.43,2A9.71,9.71,0,0,0,37.24,16a27.86,27.86,0,0,0-1.17,3A33,33,0,0,0,34.91,22.41Z"/><path class="cls-4" d="M74.54,56.17c-.29-.17-.7-.14-.9-.48.91-1.11,1.11-2.51,1.57-3.82a13.08,13.08,0,0,1,3.11-4.72c.33.06.2.26.17.46a2,2,0,0,0,.29,1.73A6.26,6.26,0,0,0,77.54,53c.51-.09.72-.58,1.16-.69a1.53,1.53,0,0,1,.14.92,2.78,2.78,0,0,0-1.17.74c-.07.06-.19.11-.14.19C77.92,55,78,56,79,56.4a7,7,0,0,0,.06.8,4.31,4.31,0,0,1-.06,2c-1.67.24-3.25-.65-3.86-2.89C75,56,74.93,55.63,74.54,56.17Z"/><path class="cls-13" d="M79.55,22.07a1.65,1.65,0,0,1-.3-1.08c0-2.47-.14-4.94-.17-7.41,0-1.19-.08-2.39-.09-3.59a1.62,1.62,0,0,0-.3-.87A7.71,7.71,0,0,1,81,7.78a1.13,1.13,0,0,1,.56,1,21.87,21.87,0,0,1,0,5c0,.24-.12.55.17.73a40,40,0,0,0-1.8,5,10.84,10.84,0,0,1,2.1-1,3.43,3.43,0,0,1,.35,1.6A15.12,15.12,0,0,0,79.55,22.07Z"/><path class="cls-2" d="M46,31c-.19,0-.38-.09-.4-.3a7.4,7.4,0,0,1-.13-1.81,26.5,26.5,0,0,0-.14-5,17.17,17.17,0,0,1,.11-3.79,6.59,6.59,0,0,1,2.63-.54,1.38,1.38,0,0,1,1.39,2c-1,2.86-2.07,5.7-3.11,8.55C46.23,30.4,46.11,30.71,46,31Z"/><path class="cls-14" d="M87.14,22a7.29,7.29,0,0,1,.15,2.55c0,1.8.49,3.57.28,5.38a9.47,9.47,0,0,0,.13,2.86.44.44,0,0,0,.19.34,9.77,9.77,0,0,1-3.17,2.31,8.75,8.75,0,0,1-.22-3.06,2.26,2.26,0,0,0-.35-1.88C85.15,27.63,86.14,24.8,87.14,22Z"/><path class="cls-15" d="M41.6,56.67c.37-1,.7-2,1.11-3a22.52,22.52,0,0,0,1.12-3.17,1.39,1.39,0,0,1,.19-.36,23.64,23.64,0,0,1,.19,4.68c0,.27.09.44.36.47-.12.42-.25.83-.37,1.25,0,.09-.11.21-.08.25A2.58,2.58,0,0,1,44.36,59a1.17,1.17,0,0,0,.14.86l-2.63,5.25c0,.08-.12.13-.18.19-.32-.18-.25-.49-.2-.73a35.74,35.74,0,0,0,.2-4.39A35.28,35.28,0,0,0,41.6,56.67Z"/><path class="cls-12" d="M39.69,32a1.76,1.76,0,0,0,.41.63.94.94,0,0,1,.19,1.18,1.71,1.71,0,0,0,0,1.51,2.48,2.48,0,0,1,.07,1.21,4.39,4.39,0,0,0,.43,2.37,18.78,18.78,0,0,1-5.45,1.8c-.11-.41-.41-.78-.28-1.24a5,5,0,0,0,3.22-3.59c-.91.18-1.67.69-2.55.79-.29-.68-.54-1.35.39-1.77.14-.06.2-.29.29-.43A5.38,5.38,0,0,0,39.69,32Z"/><path class="cls-11" d="M50.46,53.28a3.11,3.11,0,0,1,.24,2.14,1.31,1.31,0,0,0,.1,1.17c.26.41,0,.85-.08,1.25a18.51,18.51,0,0,0-.1,2.78c0,1.48,0,3,0,4.43,0,.27.08.56-.23.73-1.52-.45-2.33-1.68-2.5-3.66a11.84,11.84,0,0,1,1-5.51c.37-.92.78-1.83,1.18-2.75C50.13,53.64,50.18,53.38,50.46,53.28Z"/><path class="cls-6" d="M70.17,22.44c-.26-.15-.21-.4-.18-.61a6.91,6.91,0,0,0-.22-3,3,3,0,0,1,0-1.34,3.36,3.36,0,0,0-.21-2.31.74.74,0,0,1-.12-.52A24.43,24.43,0,0,0,69.56,11a4.23,4.23,0,0,1,.14-1,4,4,0,0,1,2.92,4.09,9.08,9.08,0,0,1-.72,3.49C71.31,19.2,70.74,20.82,70.17,22.44Z"/><path class="cls-12" d="M78.78,49.34a2,2,0,0,1-.29-1.73c0-.2.16-.4-.17-.46A6.23,6.23,0,0,1,82.1,45a1.42,1.42,0,0,1,1.67,1.38A4.25,4.25,0,0,1,83,49.19a15,15,0,0,1-4.07,4s-.09,0-.13,0a1.53,1.53,0,0,0-.14-.92l.53-.54a7.87,7.87,0,0,0,2.25-3.57c.08-.33.22-.71-.09-1s-.64,0-.91.19A8.1,8.1,0,0,0,78.78,49.34Z"/><path class="cls-3" d="M87.43,48.36c.63.16.41.74.57,1.13-.38.61-.77,1.21-1.14,1.81-.1.16-.25.46.1.43,1-.06,1.64.63,2.28,1.25.19.19.33.37.6.15A6.85,6.85,0,0,1,90,55.47a9.71,9.71,0,0,0-.1,1.21c-1.55.24-4-1.26-4.37-3.09,0-.31-.18-.39-.46-.27a.52.52,0,0,1-.36-.6Z"/><path class="cls-13" d="M44.57,55.33c-.27,0-.37-.2-.36-.47A23.64,23.64,0,0,0,44,50.18a4.47,4.47,0,0,0,0-2.73.43.43,0,0,0,.18-.53c-.29-1,.13-2-.12-2.9a4.54,4.54,0,0,1,1.3-1.17.67.67,0,0,1,.75-.1c-.08,2.49.13,5-.12,7.46,0,.13.09.2.2.26a40,40,0,0,1-1.3,3.92C44.8,54.71,44.68,55,44.57,55.33Z"/><path class="cls-14" d="M41.6,56.67a35.28,35.28,0,0,1,.09,3.55,35.74,35.74,0,0,1-.2,4.39c-.05.24-.12.55.2.73A4.48,4.48,0,0,1,40.84,67c-.3.4-.68.51-1,0,.09-1.95-.13-3.9.15-5.84a1.06,1.06,0,0,0-.15-.65A41.55,41.55,0,0,1,41.6,56.67Z"/><path class="cls-15" d="M81.76,14.51c-.29-.18-.21-.49-.17-.73a21.87,21.87,0,0,0,0-5,1.13,1.13,0,0,0-.56-1,11,11,0,0,1,3.3-1.1c.34.58,0,1.17,0,1.75a7.66,7.66,0,0,0-1.58,2.91l1.08-.29a.24.24,0,0,1,.16.25c0,.55,0,1.09-.06,1.63A5,5,0,0,0,81.76,14.51Z"/><path class="cls-2" d="M55.16,48.39c-.43,0-.6-.13-.48-.63.25-1,.15-2.13.3-3.2a7.6,7.6,0,0,0-.35-2.06.35.35,0,0,0-.34-.28,9.45,9.45,0,0,1,.66-.76,1,1,0,0,1,1.45-.08,9.73,9.73,0,0,1,1.42,1.45c.33.37,0,.83-.16,1.19-.59,1-1.21,2-1.79,3C55.61,47.47,55.39,47.93,55.16,48.39Z"/><path class="cls-15" d="M84.15,30.47a2.26,2.26,0,0,1,.35,1.88,8.75,8.75,0,0,0,.22,3.06,10.52,10.52,0,0,1-3,1.17,12.94,12.94,0,0,1-.14-2.71A11.14,11.14,0,0,0,84.15,30.47Z"/><path class="cls-9" d="M36.42,34.41c-.09.14-.15.37-.29.43-.93.42-.68,1.09-.39,1.77a8.8,8.8,0,0,1-3.68.8c-.14-.88.3-1.75-.06-2.66-.21-.52.42-.67.76-.91a2.35,2.35,0,0,0,1.07.65A7,7,0,0,0,36.42,34.41Z"/><path class="cls-2" d="M65.66,45.24A3.44,3.44,0,0,1,64.42,48a1.24,1.24,0,0,1-1.92-.86,3.48,3.48,0,0,1,1.32-2.85,1.19,1.19,0,0,1,1.84,1Z"/><path class="cls-11" d="M50.05,47.68c.48.07.54.44.56.81a8,8,0,0,1-.12,2c-.85,1.2-1.62,2.46-2.58,3.58a5.17,5.17,0,0,0-.45-2.16c.57-1.15,1.34-2.19,2-3.28C49.66,48.28,49.86,48,50.05,47.68Z"/><path class="cls-16" d="M78.7,78a4.48,4.48,0,0,1,0-.82c.05-.36-.24-.81.17-1.06a1.92,1.92,0,0,1,1.77.38A1.18,1.18,0,0,1,80.77,78s0,0,0,0c-.85.6-.26,1.12.08,1.65.07.11.12.26.3.25s.15-.2.19-.32c.36-1,.72-2,1.09-3,.08-.22.07-.53.42-.55s.32.34.4.54c.37,1,.73,2,1.08,2.93,0,.13.26.36,0,.44s-.34,0-.39-.27a4.52,4.52,0,0,0-.23-.71c-.14-.42-.27-.76-.87-.73s-.58.4-.72.74-.12.43-.21.64-.24.26-.54.31c-.91.13-1.17-.46-1.49-1a.39.39,0,0,0-.45-.22c-.26.07-.12.3-.18.45s.25.84-.27.82-.17-.53-.19-.82A11.25,11.25,0,0,1,78.7,78Zm.43-.64c.25.26-.35.88.43.9a.91.91,0,0,0,1-.9.88.88,0,0,0-.9-.88C78.83,76.45,79.33,77.07,79.13,77.36Zm3.72-.3c-.17.26-.46.49-.3.81,0,.08.42.11.49,0C83.29,77.6,83,77.35,82.85,77.06Z"/><path class="cls-12" d="M79,59.25a4.31,4.31,0,0,0,.06-2,7,7,0,0,1-.06-.8,3.93,3.93,0,0,0,3.13-1.07c.26.53,0,1.21.56,1.65A5.15,5.15,0,0,1,79,59.25Z"/><path class="cls-12" d="M35.2,29.52c-.08-.72-.84-.87-1.15-1.39,1.16-.41,2.4-.5,3.56-.93a4.21,4.21,0,0,1,1.33-.46.57.57,0,0,1,.21.86.76.76,0,0,0,0,.83A11,11,0,0,1,35.2,29.52Z"/><path class="cls-15" d="M44.07,44c.25.95-.17,1.94.12,2.9a.43.43,0,0,1-.18.53,1.08,1.08,0,0,0-.95.51c-.46.57-.94,1.13-1.41,1.69a2,2,0,0,1-.11-1.42c.07-.38.22-.78-.12-1.12A14.26,14.26,0,0,1,44.07,44Z"/><path class="cls-10" d="M46.2,50.47c-.11-.06-.21-.13-.2-.26.25-2.48,0-5,.12-7.46A2.1,2.1,0,0,1,47.62,45,21.74,21.74,0,0,1,46.2,50.47Z"/><path class="cls-4" d="M40.81,12.25a5.18,5.18,0,0,1-.43-2A25.3,25.3,0,0,1,44,9.61c.31,0,.9-.25.91.12A1.13,1.13,0,0,1,44.22,11c-.63.17-1.25.39-1.86.62S41.33,12,40.81,12.25Z"/><path class="cls-6" d="M72.83,22.34c0,.11,0,.29,0,.33.85.57.72,1.47.58,2.21a4.48,4.48,0,0,0,.2,2.57,7.66,7.66,0,0,1-1.07,0,1.21,1.21,0,0,1-1.06-1.52A32.88,32.88,0,0,1,72.83,22.34Z"/><path class="cls-13" d="M44.5,59.9a1.17,1.17,0,0,1-.14-.86,2.58,2.58,0,0,0-.24-2.21s.05-.16.08-.25l.15.05c.07,0,.11,0,.13-.07A23.67,23.67,0,0,1,46,54c.2,0,.52.1.41.32-.36.79.08,1.58-.05,2.36C45.87,57.78,45.1,58.79,44.5,59.9Z"/><path class="cls-16" d="M93.08,77.19v2.39c0,.2,0,.46-.28.43s-.19-.26-.19-.43q0-1.5,0-3c0-.16-.12-.39.13-.47a.47.47,0,0,1,.57.25c.53.78,1.08,1.56,1.62,2.35l.25.32a3.61,3.61,0,0,0,.12-1.48c0-.34,0-.68,0-1,0-.18-.1-.45.25-.43s.22.29.22.46c0,1,0,2,0,2.93,0,.19.11.45-.18.52s-.41-.12-.55-.32c-.51-.74-1-1.49-1.56-2.23A.43.43,0,0,0,93.08,77.19Z"/><path class="cls-14" d="M87.57,17.37c.05.53.41,1,.24,1.57-1.2.17-2.4.37-3.58.64-.41-.51-.11-1.11-.2-1.66A9.69,9.69,0,0,1,87.57,17.37Z"/><path class="cls-16" d="M53.2,84.28c0-1,0-1.81,0-2.64,0-.19-.15-.48.25-.5s.29.27.29.47q0,1.5,0,3c0,.18.12.44-.19.5a.49.49,0,0,1-.55-.28c-.49-.75-1-1.49-1.54-2.23-.11-.16-.24-.32-.37-.5-.31.29-.06.58-.07.84,0,.61,0,1.23,0,1.84,0,.16,0,.33-.24.33a.19.19,0,0,1-.21-.21c0-1.18,0-2.36,0-3.54a.2.2,0,0,1,.2-.22c.23,0,.32.13.42.27C51.81,82.33,52.46,83.25,53.2,84.28Z"/><path class="cls-16" d="M53.36,77.19c0,.72,0,1.44,0,2.16,0,.23.19.65-.24.64s-.19-.39-.19-.61c0-.89,0-1.77,0-2.66,0-.21-.19-.53.19-.62s.47.21.62.43l1.34,2c.11.16.24.31.49.63,0-1,0-1.75,0-2.53,0-.2-.12-.5.27-.49s.24.31.24.5c0,1,0,1.91,0,2.86,0,.2.12.49-.22.56s-.39-.16-.52-.35c-.6-.84-1.2-1.68-1.81-2.51Z"/><path class="cls-16" d="M47.76,78.38,46.69,77l-.16,0c0,.78,0,1.55,0,2.33,0,.22.15.62-.2.62s-.22-.42-.23-.65c0-.93,0-1.86,0-2.79,0-.16-.11-.39.16-.45a.5.5,0,0,1,.53.23c.14.21.28.41.43.61.63.81.63.81,1.24-.07.09-.13.16-.28.25-.4s.36-.45.67-.37.18.41.19.62c0,.94,0,1.87,0,2.8,0,.19.08.47-.22.48s-.23-.27-.23-.45c0-.84,0-1.67,0-2.6C48.46,77.34,48.28,78,47.76,78.38Z"/><path class="cls-16" d="M78.61,71.46c-.3.39-.61.76-.9,1.16s-.34.27-.56,0a3.28,3.28,0,0,0-1-1.12c0,.89,0,1.7,0,2.5,0,.17.15.46-.19.48s-.23-.28-.23-.44q0-1.5,0-3c0-.14-.1-.34.12-.4a.42.42,0,0,1,.48.15c.29.38.6.74.88,1.13s.33.23.51,0,.55-.71.82-1.08a.48.48,0,0,1,.53-.21c.27.06.16.29.16.45,0,1,0,2,0,3,0,.17.06.4-.23.4s-.23-.21-.23-.38c0-.87,0-1.73,0-2.59Z"/><path class="cls-14" d="M41.42,47.11c.34.34.19.74.12,1.12a2,2,0,0,0,.11,1.42,25.74,25.74,0,0,1-1.78,2.89c-.13-.79.15-1.64-.3-2.39A18.14,18.14,0,0,1,41.42,47.11Z"/><path class="cls-16" d="M63.33,74.49a2,2,0,0,1-2.08-2,2,2,0,0,1,4.08,0A2,2,0,0,1,63.33,74.49Zm-1.53-2a1.51,1.51,0,0,0,1.52,1.64,1.57,1.57,0,0,0,1.53-1.59A1.55,1.55,0,0,0,63.29,71,1.45,1.45,0,0,0,61.8,72.48Z"/><path class="cls-5" d="M39.82,60.5a1.06,1.06,0,0,1,.15.65c-.28,1.94-.06,3.89-.15,5.84-1.15-1.4-1.68-2.89-.83-4.66A15.8,15.8,0,0,1,39.82,60.5Z"/><path class="cls-16" d="M49.94,72.54a2,2,0,1,1,4,0,2,2,0,0,1-4,0Zm3.54,0A1.49,1.49,0,0,0,52,71a1.43,1.43,0,0,0-1.5,1.55A1.47,1.47,0,0,0,52,74.12,1.52,1.52,0,0,0,53.48,72.55Z"/><path class="cls-16" d="M78.19,78a2,2,0,1,1-4-.06,2,2,0,1,1,4,.06Zm-3.53,0a1.57,1.57,0,0,0,1.53,1.58A1.58,1.58,0,0,0,77.74,78a1.54,1.54,0,1,0-3.08,0Z"/><path class="cls-16" d="M64.25,78a2,2,0,0,1,2-2,1.94,1.94,0,0,1,2,2.07,2.05,2.05,0,0,1-2,2A2.1,2.1,0,0,1,64.25,78Zm.53,0a1.5,1.5,0,0,0,1.51,1.63,1.54,1.54,0,0,0,1.49-1.54,1.59,1.59,0,0,0-1.49-1.68A1.54,1.54,0,0,0,64.78,78Z"/><path class="cls-16" d="M42.87,78a2.14,2.14,0,0,1-2,2,2.07,2.07,0,0,1-2-2,1.92,1.92,0,0,1,2-2.05A2,2,0,0,1,42.87,78Zm-.53.07a1.54,1.54,0,0,0-1.46-1.69A1.64,1.64,0,0,0,39.3,78a1.61,1.61,0,0,0,1.52,1.61A1.51,1.51,0,0,0,42.34,78.07Z"/><path class="cls-16" d="M92.13,78a2.09,2.09,0,0,1-2,2,2,2,0,0,1-2-2.06,2,2,0,0,1,2-2A2,2,0,0,1,92.13,78Zm-3.51,0a1.51,1.51,0,0,0,1.49,1.65,1.53,1.53,0,0,0,1.54-1.55,1.56,1.56,0,0,0-1.47-1.68A1.52,1.52,0,0,0,88.62,78Z"/><path class="cls-16" d="M25.57,76.09a2,2,0,0,1,2.22,2.08A2.23,2.23,0,0,1,25.24,80c-.35-.05-.38-.24-.38-.52,0-.88,0-1.76,0-2.65C24.82,76.22,25,75.93,25.57,76.09ZM25.4,78c0,.39,0,.77,0,1.16s.11.41.43.41a1.47,1.47,0,0,0,1.47-1.37A1.5,1.5,0,0,0,26,76.5c-.49-.08-.72,0-.65.58A6.46,6.46,0,0,1,25.4,78Z"/><path class="cls-16" d="M68.75,78a5.46,5.46,0,0,1,0-.81c.06-.37-.25-.87.21-1.08a1.65,1.65,0,0,1,1.8.46,1,1,0,0,1,0,1.48c-.69.59-.37,1,0,1.54.08.11.27.27.08.4s-.35,0-.46-.18-.39-.55-.56-.84-.2-.31-.42-.27-.13.28-.18.43.23.85-.26.84-.2-.57-.25-.88A5.64,5.64,0,0,1,68.75,78Zm.53-.71c0,1,0,1,.4,1a.83.83,0,0,0,.86-.9.81.81,0,0,0-.89-.86C68.92,76.52,69.47,77.09,69.28,77.3Z"/><path class="cls-9" d="M82.67,57c-.53-.44-.3-1.12-.56-1.65l2.59-2.61a.52.52,0,0,0,.36.6A13.92,13.92,0,0,1,82.67,57Z"/><path class="cls-16" d="M49.52,73.31c0,.75-.27,1-1.05,1.17a2.1,2.1,0,0,1-2.19-1.14,2,2,0,0,1,.49-2.24,2,2,0,0,1,2.37-.25c.12.08.41.12.32.35s-.31.12-.51,0a1.5,1.5,0,0,0-2.31,1,1.43,1.43,0,0,0,.54,1.5,1.45,1.45,0,0,0,1.53.26c.3-.11.36-.33.39-.63s-.26-.7.22-.7S49.41,73.13,49.52,73.31Z"/><path class="cls-16" d="M69,72.56v-.88c0-1.13.13-1.26,1.22-1.05a1.23,1.23,0,0,1,1,.83A1.11,1.11,0,0,1,71,72.77c-.46.33-.44.54-.12,1,.16.19.56.54.32.7-.4.26-.53-.23-.7-.51a2.82,2.82,0,0,0-.18-.29c-.15-.18-.24-.48-.56-.39s-.13.38-.17.58a2.8,2.8,0,0,0,0,.41.23.23,0,0,1-.25.26c-.19,0-.28-.07-.28-.28Zm.49-.75c.23.29-.35.92.44,1A.87.87,0,1,0,70,71C69.25,71,69.7,71.55,69.52,71.81Z"/><path class="cls-14" d="M83.92,12.93c0-.54,0-1.08.06-1.63a.24.24,0,0,0-.16-.25,13.72,13.72,0,0,1,2.4-.78v2.25A9.41,9.41,0,0,0,83.92,12.93Z"/><path class="cls-16" d="M28.28,78v-.34c0-1.78,0-1.78,1.8-1.57.1,0,.25,0,.28.12s-.13.23-.25.24a3.75,3.75,0,0,1-.82,0c-.42-.06-.48.12-.53.52-.08.72.17.91.84.84.25,0,.74-.2.75.17s-.47.2-.72.21c-.89,0-1,.19-.86,1.08.05.28.22.23.39.23h.95c.15,0,.27.06.28.24s-.13.24-.27.25q-.78,0-1.56,0c-.28,0-.29-.23-.28-.45Z"/><path class="cls-16" d="M50.17,78c0-.14,0-.28,0-.41,0-.49-.21-1.25.1-1.42A4.1,4.1,0,0,1,52,76.1c.11,0,.24,0,.24.16s-.11.19-.23.2H51.4a.77.77,0,0,0-.76,1.16c.08.2.23.18.39.18s.54,0,.81,0,.42-.08.41.21-.27.17-.43.19a1.4,1.4,0,0,1-.41,0c-.6-.09-.83.11-.8.76,0,.5.17.63.63.56a4.71,4.71,0,0,1,.75,0c.14,0,.26,0,.26.23A.24.24,0,0,1,52,80H50.44c-.31,0-.27-.25-.27-.45Z"/><path class="cls-10" d="M46.4,56.63c.13-.78-.31-1.57.05-2.36.11-.22-.21-.28-.41-.32.48-.69,1-1.39,1.42-2.08A5.17,5.17,0,0,1,47.91,54,18.72,18.72,0,0,1,46.4,56.63Z"/><path class="cls-16" d="M66.3,72.18v1a.79.79,0,0,0,.8.9.82.82,0,0,0,.89-.85c0-.7,0-1.4,0-2.11,0-.18-.15-.52.24-.51s.21.34.22.53c0,.61,0,1.23,0,1.84a1.36,1.36,0,1,1-2.72.11c0-.7,0-1.41,0-2.11,0-.23,0-.4.33-.38s.21.24.21.4C66.3,71.4,66.3,71.79,66.3,72.18Z"/><path class="cls-16" d="M41.56,74.48c-.25,0-.27-.1-.2-.29L42.56,71c.06-.16.11-.35.36-.33s.25.19.3.33c.38,1,.76,2.09,1.12,3.14,0,.1.24.29,0,.38s-.3,0-.37-.21-.19-.5-.27-.76-.11-.7-.65-.69-.77.07-.85.6a3.21,3.21,0,0,1-.29.76C41.81,74.3,41.76,74.48,41.56,74.48Zm1.33-2.88c-.17.24-.36.49-.27.74s.35.08.54,0A1.53,1.53,0,0,0,42.89,71.6Z"/><path class="cls-16" d="M34.1,78.05v-.4c0-1.67,0-1.67,1.66-1.55.14,0,.37-.08.36.17s-.23.18-.38.2a1.63,1.63,0,0,1-.54,0c-.5-.12-.65,0-.66.57s.16.85.79.79c.26,0,.76-.22.77.21s-.49.16-.75.17c-.72,0-1.05.5-.78,1.16.11.28.34.11.52.16.35.09,1-.22,1,.21s-.64.27-1,.28c-1.17,0-1,.16-1-1C34.09,78.69,34.1,78.37,34.1,78.05Z"/><path class="cls-16" d="M55.77,72.84c-.76-.16-.64.54-.86.89s-.06.9-.57.71c-.35-.14,0-.57.14-.84.3-.88.64-1.74,1-2.6.06-.15,0-.37.3-.38s.33.2.4.38c.36,1,.72,2,1.07,3,.05.15.21.37,0,.47s-.33-.14-.41-.33a6.21,6.21,0,0,1-.3-.82A.54.54,0,0,0,55.77,72.84Zm.06-1.37c-.24.38-.4.63-.28.91a.5.5,0,0,0,.43,0C56.22,72.11,55.92,71.89,55.83,71.47Z"/><path class="cls-16" d="M58.78,85.06l1.28-3.63c0-.15.09-.3.31-.29a.32.32,0,0,1,.33.27c.37,1.06.75,2.13,1.1,3.2,0,.14.3.4-.06.49s-.3-.2-.37-.38-.18-.42-.24-.63c-.09-.37-.14-.67-.66-.67s-.75.14-.85.62c-.06.26-.21.51-.27.77S59.06,85.15,58.78,85.06Zm1.65-3c-.3.18-.32.46-.38.71s.14.26.32.26.38,0,.36-.25A1.48,1.48,0,0,0,60.43,82.08Z"/><path class="cls-8" d="M26.06,28c.14.57-.31,1-.27,1.61a2.71,2.71,0,0,0-2.16,1.63c-.06.18-.14.37-.38.28s-.11-.31-.08-.47A3.37,3.37,0,0,1,26.06,28Z"/><path class="cls-16" d="M60.44,78a2,2,0,0,1,.92-1.73,2,2,0,0,1,2.11,0c.15.08.38.19.24.41s-.29.08-.46,0a1.44,1.44,0,0,0-2,.32,1.7,1.7,0,0,0,0,2,1.5,1.5,0,0,0,2,.34c.16-.08.32-.26.46,0s-.13.32-.25.39a1.76,1.76,0,0,1-1.92.09A2.08,2.08,0,0,1,60.44,78Z"/><path class="cls-16" d="M71.48,78.08a5.28,5.28,0,0,1,0-.89c.06-.36-.27-.88.21-1.07a1.61,1.61,0,0,1,1.93.61,1.35,1.35,0,0,1-.31,1.62,1,1,0,0,1-.78.35c-.52-.08-.63.17-.57.61a2.81,2.81,0,0,1,0,.41.27.27,0,0,1-.29.3c-.16,0-.21-.16-.2-.31V78.08ZM72,77.3c0,1,0,1,.4,1a1,1,0,0,0,1-.91,1,1,0,0,0-.94-.87C71.62,76.46,72.13,77.07,72,77.3Z"/><path class="cls-16" d="M68.88,83.08c0-.5,0-1,0-1.5,0-.3,0-.47.4-.44s1,0,1.43,0c.13,0,.27,0,.27.21s-.12.21-.27.21a4.28,4.28,0,0,1-.62,0c-.5-.07-.68.08-.68.64s.17.77.72.68a3.84,3.84,0,0,1,.48,0c.18,0,.38,0,.37.26s-.19.2-.35.2a2.44,2.44,0,0,1-.54,0c-.53-.08-.65.12-.69.65,0,.72.31.69.8.7.26,0,.76-.26.74.23s-.48.18-.74.18c-1.32,0-1.32,0-1.31-1.34Z"/><path class="cls-16" d="M67,84.2c.35-1,.64-1.82.94-2.65.07-.19.09-.52.41-.38s.07.37,0,.56c-.34,1-.68,2-1,2.94-.06.18-.06.45-.34.43s-.23-.25-.28-.41c-.35-1-.68-1.92-1-2.89-.07-.21-.31-.51,0-.63s.39.28.47.5C66.46,82.45,66.72,83.25,67,84.2Z"/><path class="cls-13" d="M81.57,33.87a12.94,12.94,0,0,0,.14,2.71,6.05,6.05,0,0,1-1.78.45v-2Z"/><path class="cls-16" d="M74,74.51c-.49-.07-1-.2-1.11-.79,0-.14-.06-.27.1-.34s.25,0,.31.16c.15.41.41.66.87.55a.76.76,0,0,0,.6-.67c.06-.45-.25-.71-.59-.91a8.06,8.06,0,0,1-.71-.39.77.77,0,0,1-.38-.82,1,1,0,0,1,.8-.75.85.85,0,0,1,.82.37c.09.09.22.21,0,.33s-.23.13-.35,0-.56-.4-.75,0,0,.63.41.8c1,.46,1.29.94,1.11,1.59A1.19,1.19,0,0,1,74,74.51Z"/><path class="cls-16" d="M32.2,79a21.61,21.61,0,0,0,.85-2.35c.06-.22.1-.66.48-.53s0,.44,0,.61c-.32,1-.69,2-1,2.94-.05.14-.11.28-.24.3s-.26-.15-.32-.3c-.37-1.06-.74-2.13-1.09-3.19,0-.1-.24-.3,0-.37a.27.27,0,0,1,.36.21l.55,1.53C31.91,78.18,32,78.51,32.2,79Z"/><path class="cls-16" d="M43.36,78v-.89c0-1.08,0-1.08,1-1a1.24,1.24,0,0,1,1.23,1.41,1.3,1.3,0,0,1-1.27,1.18c-.49,0-.6.18-.54.6,0,.11,0,.23,0,.34s0,.41-.25.39-.19-.26-.2-.43Zm.45-.7c0,1,0,1,.43,1a.89.89,0,1,0,0-1.78C43.46,76.47,44,77.08,43.81,77.31Z"/><path class="cls-16" d="M36.79,78.07c0-.52,0-1,0-1.56,0-.19-.08-.43.27-.42s.25.26.25.44c0,.8,0,1.6,0,2.39,0,.53.16.68.65.61a2.8,2.8,0,0,1,.41,0c.15,0,.27,0,.28.22a.23.23,0,0,1-.23.27c-.46,0-.91,0-1.36,0-.26,0-.27-.2-.27-.39Z"/><path class="cls-10" d="M79.92,35.05v2a3.78,3.78,0,0,1-1.91.24,4.66,4.66,0,0,0,.14-1.49Z"/><path class="cls-16" d="M57.39,78.26c0-.34,0-.68,0-1s0-.89-.62-.77c-.14,0-.29,0-.28-.22s.19-.15.31-.15h1.63c.13,0,.3,0,.33.14s-.17.22-.28.21c-.67-.08-.62.35-.61.8,0,.77,0,1.54,0,2.31,0,.2.05.46-.25.46s-.23-.28-.23-.47C57.38,79.12,57.39,78.69,57.39,78.26Z"/><path class="cls-15" d="M84,17.92c.09.55-.21,1.15.2,1.66a9.67,9.67,0,0,1-1.82.59,3.43,3.43,0,0,0-.35-1.6A5.09,5.09,0,0,1,84,17.92Z"/><path class="cls-16" d="M59.77,72.7v-.88c0-.45.11-1-.65-.79a.22.22,0,0,1-.29-.2c0-.19.14-.21.28-.21h1.76c.14,0,.28,0,.27.2a.21.21,0,0,1-.28.21c-.64-.13-.67.25-.65.74,0,.77,0,1.54,0,2.31,0,.16.08.41-.22.4s-.23-.24-.23-.41Z"/><path class="cls-16" d="M85.25,78.22c0-.34,0-.68,0-1s.08-.85-.59-.74c-.12,0-.3,0-.29-.21s.19-.15.32-.15h1.63c.12,0,.3-.06.3.15a.23.23,0,0,1-.29.22c-.66-.12-.65.29-.63.76,0,.75,0,1.5,0,2.25,0,.2.1.54-.24.52s-.2-.35-.21-.55C85.24,79,85.25,78.63,85.25,78.22Z"/><path class="cls-14" d="M84.32,8.43c0-.58.31-1.17,0-1.75a5.35,5.35,0,0,1,1.93-.42c0,.41,0,.81,0,1.21A13.65,13.65,0,0,0,84.32,8.43Z"/><path class="cls-16" d="M62.89,83.35c0-.34,0-.68,0-1,0-.5,0-.93-.67-.78a.21.21,0,0,1-.28-.21c0-.21.13-.2.27-.2H64c.13,0,.28,0,.29.18s-.08.27-.24.24c-.77-.16-.69.35-.68.84q0,1.16,0,2.31c0,.16.08.4-.22.4s-.23-.23-.23-.4C62.88,84.26,62.89,83.81,62.89,83.35Z"/><path class="cls-12" d="M41.47,21.21c.32.31.13.89.62,1.11a24.31,24.31,0,0,1-2.76.75,1.67,1.67,0,0,1,1.39-1.59A5.17,5.17,0,0,0,41.47,21.21Z"/><path class="cls-9" d="M35.07,39.41c-.13.46.17.83.28,1.24a10.73,10.73,0,0,1-2.41.39,1.35,1.35,0,0,1,1.34-1.42A7.69,7.69,0,0,0,35.07,39.41Z"/><path class="cls-13" d="M79.55,25.9a1.51,1.51,0,0,0-.31-1.06,13.9,13.9,0,0,1,2.39-.68C81.64,25.66,80.45,25.6,79.55,25.9Z"/><path class="cls-16" d="M56.16,83.31c0-.32,0-.64,0-1,0-.48.07-1-.66-.8a.21.21,0,0,1-.27-.22c0-.2.14-.2.27-.2h1.77c.14,0,.29,0,.27.2a.22.22,0,0,1-.28.21c-.66-.13-.66.27-.65.75,0,.79,0,1.59,0,2.38,0,.16.09.4-.21.42s-.24-.26-.25-.44C56.15,84.22,56.16,83.76,56.16,83.31Z"/><path class="cls-11" d="M78.16,35.78A4.66,4.66,0,0,1,78,37.27l-1.93.15C76.15,36,77.27,36.06,78.16,35.78Z"/><path class="cls-5" d="M86.23,7.47c0-.4,0-.8,0-1.21a7.51,7.51,0,0,1,1.93-.39c-.14.81-.36,1.42-1.28,1.42A2.2,2.2,0,0,0,86.23,7.47Z"/><path class="cls-16" d="M54.84,83.16c0,.5,0,1,0,1.5,0,.18.09.44-.25.45s-.29-.21-.29-.42V81.55c0-.21,0-.42.3-.41s.23.27.23.45C54.85,82.11,54.84,82.64,54.84,83.16Z"/><path class="cls-16" d="M65.2,83.16c0,.52,0,1,0,1.56,0,.18,0,.39-.24.39s-.2-.21-.2-.35V81.49c0-.14-.06-.33.2-.34s.24.2.24.38C65.21,82.07,65.2,82.61,65.2,83.16Z"/><path class="cls-16" d="M71.9,72.54V71c0-.19,0-.37.26-.36s.27.19.27.37v3.13c0,.2,0,.37-.28.37s-.25-.21-.25-.38C71.89,73.58,71.9,73.06,71.9,72.54Z"/><path class="cls-16" d="M49.86,83.2c0,.52,0,1,0,1.57,0,.16,0,.32-.21.34s-.27-.17-.27-.35V81.48c0-.15,0-.33.21-.34s.28.16.28.36C49.85,82.06,49.86,82.63,49.86,83.2Z"/><path class="cls-16" d="M87.57,78.12v1.57c0,.17,0,.34-.24.32s-.2-.15-.2-.3V76.37c0-.14,0-.27.21-.27s.23.16.23.32Z"/><path class="cls-16" d="M58.42,83.06c0,.57,0,1.14,0,1.7,0,.15,0,.34-.2.35S58,85,58,84.78V81.45c0-.17,0-.32.25-.3s.19.21.19.35C58.43,82,58.42,82.54,58.42,83.06Z"/><path class="cls-15" d="M44.48,56.56c0,.07-.06.11-.13.07Z"/><path class="cls-7" d="M35.83,44a.13.13,0,0,1-.07-.05h.05Z"/><path class="cls-1" d="M35.2,29.52a11,11,0,0,0,4-1.09L41,27.62,39.69,32a5.38,5.38,0,0,1-3.27,2.46,7,7,0,0,1-2.59.08,2.35,2.35,0,0,1-1.07-.65,3.25,3.25,0,0,1-.73-2.7c0-.31,0-.62,0-.93s.43-.42.78-.42A8.81,8.81,0,0,0,35.2,29.52Z"/><path class="cls-1" d="M84,17.92a5.09,5.09,0,0,0-2,.65,10.84,10.84,0,0,0-2.1,1,40,40,0,0,1,1.8-5,5,5,0,0,1,2.16-1.58,9.41,9.41,0,0,1,2.3-.41c2.52-.18,3.33,2.49,2.54,4.48-.23.59-.78.28-1.19.37A9.69,9.69,0,0,0,84,17.92Z"/><path class="cls-1" d="M78.78,49.34a8.1,8.1,0,0,1,1.7-1.9c.27-.16.57-.48.91-.19s.17.63.09,1a7.87,7.87,0,0,1-2.25,3.57l-.53.54c-.44.11-.65.6-1.16.69A6.26,6.26,0,0,1,78.78,49.34Z"/><path class="cls-1" d="M79.13,77.36c.2-.29-.3-.91.49-.88a.88.88,0,0,1,.9.88.91.91,0,0,1-1,.9C78.78,78.24,79.38,77.62,79.13,77.36Z"/><path class="cls-1" d="M82.85,77.06c.13.29.44.54.19.83-.07.09-.46.06-.49,0C82.39,77.55,82.68,77.32,82.85,77.06Z"/><path class="cls-1" d="M61.8,72.48A1.45,1.45,0,0,1,63.29,71a1.55,1.55,0,0,1,1.56,1.55,1.57,1.57,0,0,1-1.53,1.59A1.51,1.51,0,0,1,61.8,72.48Z"/><path class="cls-1" d="M53.48,72.55A1.52,1.52,0,0,1,52,74.12a1.47,1.47,0,0,1-1.48-1.6A1.43,1.43,0,0,1,52,71,1.49,1.49,0,0,1,53.48,72.55Z"/><path class="cls-1" d="M74.66,78a1.54,1.54,0,1,1,3.08,0,1.58,1.58,0,0,1-1.55,1.63A1.57,1.57,0,0,1,74.66,78Z"/><path class="cls-1" d="M64.78,78a1.54,1.54,0,0,1,1.51-1.59,1.59,1.59,0,0,1,1.49,1.68,1.54,1.54,0,0,1-1.49,1.54A1.5,1.5,0,0,1,64.78,78Z"/><path class="cls-1" d="M42.34,78.07a1.51,1.51,0,0,1-1.52,1.55A1.61,1.61,0,0,1,39.3,78a1.64,1.64,0,0,1,1.58-1.63A1.54,1.54,0,0,1,42.34,78.07Z"/><path class="cls-1" d="M88.62,78a1.52,1.52,0,0,1,1.56-1.58,1.56,1.56,0,0,1,1.47,1.68,1.53,1.53,0,0,1-1.54,1.55A1.51,1.51,0,0,1,88.62,78Z"/><path class="cls-1" d="M25.4,78a6.46,6.46,0,0,0,0-.88c-.07-.54.16-.66.65-.58a1.5,1.5,0,0,1,1.25,1.66,1.47,1.47,0,0,1-1.47,1.37c-.32,0-.45-.08-.43-.41S25.4,78.35,25.4,78Z"/><path class="cls-1" d="M69.28,77.3c.19-.21-.36-.78.37-.81a.81.81,0,0,1,.89.86.83.83,0,0,1-.86.9C69.28,78.26,69.28,78.26,69.28,77.3Z"/><path class="cls-1" d="M69.52,71.81c.18-.26-.27-.8.44-.78a.87.87,0,1,1,0,1.74C69.17,72.73,69.75,72.1,69.52,71.81Z"/><path class="cls-1" d="M42.89,71.6a1.53,1.53,0,0,1,.27.78c-.19,0-.48.15-.54,0S42.72,71.84,42.89,71.6Z"/><path class="cls-1" d="M55.83,71.47c.09.42.39.64.15.92a.5.5,0,0,1-.43,0C55.43,72.1,55.59,71.85,55.83,71.47Z"/><path class="cls-1" d="M60.43,82.08a1.48,1.48,0,0,1,.3.72c0,.27-.18.25-.36.25s-.4,0-.32-.26S60.13,82.26,60.43,82.08Z"/><path class="cls-1" d="M72,77.3c.16-.23-.35-.84.44-.82a1,1,0,0,1,.94.87,1,1,0,0,1-1,.91C72,78.25,72,78.25,72,77.3Z"/><path class="cls-1" d="M43.81,77.31c.17-.23-.35-.84.44-.83a.89.89,0,1,1,0,1.78C43.81,78.26,43.81,78.26,43.81,77.31Z"/></svg>