<svg xmlns="http://www.w3.org/2000/svg" width="101.962" height="100.922" viewBox="0 0 101.962 100.922">
  <g id="Group_896" data-name="Group 896" transform="translate(-330.908 -208.519)">
    <path id="Path_660" data-name="Path 660" d="M353.514,370.356a4,4,0,0,1-4.212,4.281,3.885,3.885,0,0,1-4.2-4.172h1.778a2.162,2.162,0,0,0,2.421,2.475,2.31,2.31,0,0,0,2.407-2.585v-3.8h-2.886v-1.682h4.691Z" transform="translate(-6.157 -67.822)" fill="#db124b"/>
    <path id="Path_661" data-name="Path 661" d="M368.952,373.146a3.508,3.508,0,1,1-3.528-3.515,3.408,3.408,0,0,1,3.528,3.515m-5.347,0a1.839,1.839,0,1,0,3.666,0,1.9,1.9,0,0,0-1.833-2,1.853,1.853,0,0,0-1.833,2" transform="translate(-13.459 -69.887)" fill="#db124b"/>
    <path id="Path_662" data-name="Path 662" d="M382.46,369.872l-4.117,9.56H376.51l1.258-2.927-2.694-6.633h1.942l1.026,2.913.643,1.9.7-1.859,1.231-2.955Z" transform="translate(-19.158 -69.992)" fill="#db124b"/>
    <path id="Path_663" data-name="Path 663" d="M396.243,365.768a.985.985,0,0,1-1.969,0,.985.985,0,0,1,1.969,0m-1.819,8.644h1.669v-6.77h-1.669Z" transform="translate(-27.487 -67.788)" fill="#db124b"/>
    <path id="Path_664" data-name="Path 664" d="M405.075,376.531V373a1.608,1.608,0,0,0-1.628-1.806,1.774,1.774,0,0,0-1.723,1.887v3.447h-1.655v-6.757h1.491l.109.917a3.041,3.041,0,0,1,2.216-1.012c1.587,0,2.859,1.19,2.859,3.31v3.542Z" transform="translate(-30.001 -69.908)" fill="#db124b"/>
    <path id="Path_665" data-name="Path 665" d="M423.755,376.521V372.91c0-.889-.465-1.7-1.381-1.7a1.539,1.539,0,0,0-1.436,1.7v3.611h-1.669v-6.757h1.546l.123.821a1.955,1.955,0,0,1,1.778-.93,2.02,2.02,0,0,1,2,1.259,2.442,2.442,0,0,1,2.257-1.231c1.914,0,2.858,1.176,2.858,3.2v3.638h-1.669v-3.638c0-.889-.369-1.641-1.272-1.641a1.535,1.535,0,0,0-1.464,1.668v3.611Z" transform="translate(-38.329 -69.897)" fill="#db124b"/>
    <path id="Path_666" data-name="Path 666" d="M447.368,373.146a3.508,3.508,0,1,1-3.529-3.515,3.408,3.408,0,0,1,3.529,3.515m-5.347,0a1.839,1.839,0,1,0,3.666,0,1.9,1.9,0,0,0-1.833-2,1.853,1.853,0,0,0-1.833,2" transform="translate(-47.474 -69.887)" fill="#db124b"/>
    <path id="Path_667" data-name="Path 667" d="M456.466,366.515v1.915h1.86v1.436h-1.874v2.913a.838.838,0,0,0,.875.958,1.918,1.918,0,0,0,.807-.2l.465,1.422a3.714,3.714,0,0,1-1.381.287,2.179,2.179,0,0,1-2.421-2.461v-2.913h-1.258V368.43H454.8v-1.738Z" transform="translate(-53.195 -68.535)" fill="#db124b"/>
    <path id="Path_668" data-name="Path 668" d="M465.892,365.768a.985.985,0,0,1-1.969,0,.985.985,0,0,1,1.969,0m-1.819,8.644h1.669v-6.77h-1.669Z" transform="translate(-57.699 -67.788)" fill="#db124b"/>
    <path id="Path_669" data-name="Path 669" d="M476.493,373.146a3.508,3.508,0,1,1-3.529-3.515,3.409,3.409,0,0,1,3.529,3.515m-5.347,0a1.838,1.838,0,1,0,3.665,0,1.9,1.9,0,0,0-1.833-2,1.853,1.853,0,0,0-1.832,2" transform="translate(-60.108 -69.887)" fill="#db124b"/>
    <path id="Path_670" data-name="Path 670" d="M488.828,376.531V373A1.608,1.608,0,0,0,487.2,371.2a1.774,1.774,0,0,0-1.723,1.887v3.447h-1.655v-6.757h1.491l.109.917a3.041,3.041,0,0,1,2.216-1.012c1.587,0,2.859,1.19,2.859,3.31v3.542Z" transform="translate(-66.331 -69.908)" fill="#db124b"/>
    <path id="Path_671" data-name="Path 671" d="M426.546,215.2a9.478,9.478,0,0,0-.83-1.835,9.657,9.657,0,0,0-1.49-1.95,9.559,9.559,0,0,0-6.8-2.832l-32.841-.064a9.59,9.59,0,0,0-8.36,4.836A9.508,9.508,0,0,0,375,217.106a9.832,9.832,0,0,0-.058,1.02l-.012,6.376,0,2v.253l0,1.743v.221l0,1.964,0,2.577,0,2,0,2,0,1.858,0,1.964,0,1.964-.01,5.317c0,.162.015.32.023.48a9.642,9.642,0,0,0,.3,1.978,9.521,9.521,0,0,0,.762,2A9.633,9.633,0,0,0,384.491,258l32.841.064a9.607,9.607,0,0,0,9.623-9.214c.006-.131.02-.26.02-.392l.01-5.406,0-1.965,0-1.964,0-1.863,0-1.991,0-2,.005-2.58,0-1.964V228.5l0-1.738v-.255l0-2,.012-6.281a9.837,9.837,0,0,0-.068-1.115,9.6,9.6,0,0,0-.418-1.913" transform="translate(-19.076)" fill="#db124b"/>
    <path id="Path_672" data-name="Path 672" d="M473.8,274.5c0,.07-.009.138-.011.208l4.857-.219c1.973-.087,3.582-2.776,3.744-5.965l-8.58.387Z" transform="translate(-61.979 -26.027)" fill="#003e70"/>
    <path id="Path_673" data-name="Path 673" d="M473.857,246.859l0,1.973,0,2,0,1.989-.005,2.472,8.459-.381,1.96-.089.64-.028a2.5,2.5,0,0,0,1.282-.44,4.632,4.632,0,0,0,1.29-1.389,9.1,9.1,0,0,0,1.19-5.12l-.074-1.652Z" transform="translate(-62.001 -16.343)" fill="#003e70"/>
    <path id="Path_674" data-name="Path 674" d="M494.645,218.889c-.091-2.007-1.157-3.306-1.852-3.317L473.66,219.4a13.72,13.72,0,0,1,.143,1.892l-.011,5.491,0,2,0,.862,7.28-.327,6.606-.3,2.162-.1,1.185-.053a2.368,2.368,0,0,0,.837-.2c1.767-.766,3.067-3.618,2.926-6.745Z" transform="translate(-61.923 -3.059)" fill="#003e70"/>
    <path id="Path_675" data-name="Path 675" d="M361.434,268.881l-8.537-.388a8.691,8.691,0,0,0,1.168,4.136,3.518,3.518,0,0,0,2.572,1.83l4.8.217c0-.1-.015-.2-.015-.308Z" transform="translate(-9.538 -26.015)" fill="#003e70"/>
    <path id="Path_676" data-name="Path 676" d="M341.855,247.815c-.129,2.855.953,5.46,2.482,6.479a2.523,2.523,0,0,0,1.278.472l.64.029,1.96.089,8.432.383.005-2.463,0-2,0-2,0-1.97-14.734-.67Z" transform="translate(-4.744 -16.33)" fill="#003e70"/>
    <path id="Path_677" data-name="Path 677" d="M332.527,215.618a4.014,4.014,0,0,0-1.471,3.234l-.138,3.032a9.1,9.1,0,0,0,1.189,5.12,4.181,4.181,0,0,0,1.734,1.628,2.356,2.356,0,0,0,.837.2l1.186.054,2.168.1,6.517.3,7.378.336,0-.86,0-2,.011-5.6a13.644,13.644,0,0,1,.133-1.78l-19.262-3.847a.648.648,0,0,0-.287.086" transform="translate(0 -3.042)" fill="#003e70"/>
    <path id="Path_678" data-name="Path 678" d="M339.783,307.883h6.6v8.7a8,8,0,0,1-.327,2.331,5.12,5.12,0,0,1-1.014,1.876,4.747,4.747,0,0,1-1.716,1.251,6,6,0,0,1-2.433.454q-5.521,0-5.521-5.662h-4.1a10.9,10.9,0,0,0,.718,4.1,8.14,8.14,0,0,0,5.013,4.817,11.474,11.474,0,0,0,3.857.625,10.611,10.611,0,0,0,4.045-.734,8.614,8.614,0,0,0,3.029-2.033,8.831,8.831,0,0,0,1.889-3.1,11.381,11.381,0,0,0,.656-3.926V304.036h-10.7Z" transform="translate(-0.159 -41.433)" fill="#003e70"/>
    <path id="Path_679" data-name="Path 679" d="M384.1,317.036a6.322,6.322,0,0,0-2.58-1.8,9.682,9.682,0,0,0-3.488-.595,9.241,9.241,0,0,0-3.393.595,7.312,7.312,0,0,0-2.581,1.674,7.467,7.467,0,0,0-1.642,2.565,8.84,8.84,0,0,0-.579,3.237,9.355,9.355,0,0,0,.579,3.363,7.188,7.188,0,0,0,1.673,2.6,7.549,7.549,0,0,0,2.659,1.673,10,10,0,0,0,3.565.595,11.257,11.257,0,0,0,3.6-.61,7.336,7.336,0,0,0,3.034-1.893l-2.44-2.409a4.284,4.284,0,0,1-1.861,1.064,7.653,7.653,0,0,1-2.268.375,5.119,5.119,0,0,1-3.222-.923,3.461,3.461,0,0,1-1.376-2.362h12.043a12.364,12.364,0,0,0-.235-4.161,7.258,7.258,0,0,0-1.486-2.987m-10.259,3.988a3.85,3.85,0,0,1,1.6-2.252,4.891,4.891,0,0,1,2.721-.751,4.689,4.689,0,0,1,2.737.751,3.055,3.055,0,0,1,1.267,2.252Z" transform="translate(-16.886 -46.034)" fill="#003e70"/>
    <path id="Path_680" data-name="Path 680" d="M416.3,317.036a6.318,6.318,0,0,0-2.58-1.8,9.679,9.679,0,0,0-3.487-.595,9.237,9.237,0,0,0-3.393.595,7.314,7.314,0,0,0-2.581,1.674,7.465,7.465,0,0,0-1.641,2.565,8.828,8.828,0,0,0-.579,3.237,9.343,9.343,0,0,0,.579,3.363,7.173,7.173,0,0,0,1.673,2.6,7.539,7.539,0,0,0,2.659,1.673,9.994,9.994,0,0,0,3.565.595,11.258,11.258,0,0,0,3.6-.61,7.335,7.335,0,0,0,3.034-1.893l-2.44-2.409a4.281,4.281,0,0,1-1.861,1.064,7.656,7.656,0,0,1-2.268.375,5.119,5.119,0,0,1-3.221-.923,3.457,3.457,0,0,1-1.376-2.362h12.043a12.393,12.393,0,0,0-.235-4.161,7.259,7.259,0,0,0-1.486-2.987m-10.259,3.988a3.851,3.851,0,0,1,1.595-2.252,4.891,4.891,0,0,1,2.721-.751,4.687,4.687,0,0,1,2.737.751,3.05,3.05,0,0,1,1.267,2.252Z" transform="translate(-30.855 -46.034)" fill="#003e70"/>
    <path id="Path_681" data-name="Path 681" d="M449.965,312.209a6.837,6.837,0,0,0-2.481-1.532,9.154,9.154,0,0,0-3.121-.516,6.648,6.648,0,0,0-1.342.157,7.15,7.15,0,0,0-1.451.469,6.4,6.4,0,0,0-1.311.782,3.653,3.653,0,0,0-.952,1.063l0-8.54h-3.847v21.865h3.595l.253-2.127a4.767,4.767,0,0,0,2.231,1.939,7.267,7.267,0,0,0,2.73.532,8.822,8.822,0,0,0,3.136-.548,7.19,7.19,0,0,0,2.512-1.58,7.325,7.325,0,0,0,1.67-2.533,9.018,9.018,0,0,0,.608-3.41,9.507,9.507,0,0,0-.593-3.5,7.1,7.1,0,0,0-1.639-2.519m-1.927,7.867a4.313,4.313,0,0,1-.935,1.439,4.207,4.207,0,0,1-1.387.922,4.388,4.388,0,0,1-1.7.328,4.721,4.721,0,0,1-1.715-.313,4.133,4.133,0,0,1-1.418-.907,4.377,4.377,0,0,1-.967-1.439,4.756,4.756,0,0,1-.358-1.877,4.559,4.559,0,0,1,.358-1.829,4.418,4.418,0,0,1,.967-1.423,4.349,4.349,0,0,1,1.418-.923,4.517,4.517,0,0,1,1.715-.328,4.6,4.6,0,0,1,1.7.313,4.035,4.035,0,0,1,2.323,2.315,4.939,4.939,0,0,1,.343,1.876,4.855,4.855,0,0,1-.343,1.845" transform="translate(-45.353 -41.457)" fill="#003e70"/>
    <rect id="Rectangle_379" data-name="Rectangle 379" width="3.816" height="21.864" transform="translate(409.659 262.635)" fill="#003e70"/>
    <path id="Path_682" data-name="Path 682" d="M490.614,322.228l-1.6,4.254-1.47-4.348-2.346-6.663H480.76l6.163,15.171-2.878,6.694h4.192l9.415-21.865h-4.222Z" transform="translate(-65.003 -46.394)" fill="#003e70"/>
    <path id="Path_683" data-name="Path 683" d="M417.192,258.419c-.01.035-.014.075-.024.11a6.5,6.5,0,0,1-1.287,2.384,6.224,6.224,0,0,1-2.84,1.832c-.033.01-.068.018-.1.027a7.92,7.92,0,0,1-1.835.284c-.163.008-.322.021-.49.021a11.489,11.489,0,0,1-1.5-.1A6.346,6.346,0,0,1,405.6,261.5a5.1,5.1,0,0,1-.845-.98,6.024,6.024,0,0,1-.666-1.357,7.672,7.672,0,0,1-.251-.883,10,10,0,0,1-.18-1.222c-.034-.375-.058-.762-.058-1.173h-5.2v0a16.48,16.48,0,0,0,.135,2.041,13.366,13.366,0,0,0,.408,2.076l.007.019c.106.364.224.721.361,1.063.112.277.24.537.367.8a10.854,10.854,0,0,0,1.055,1.733,9.87,9.87,0,0,0,1.1,1.262,10.641,10.641,0,0,0,3.846,2.323,13.421,13.421,0,0,0,2.258.578,15.6,15.6,0,0,0,2.139.2c.167,0,.33.019.5.019a15.984,15.984,0,0,0,1.647-.092c.426-.044.842-.1,1.246-.184a12.092,12.092,0,0,0,1.888-.535c.117-.043.24-.076.354-.123a11.952,11.952,0,0,0,1.456-.726,10.531,10.531,0,0,0,2.389-1.855,10.871,10.871,0,0,0,1.946-2.849c.044-.093.079-.194.121-.289.116-.26.233-.519.332-.793.125-.341.23-.692.327-1.047.055-.2.1-.41.143-.616a14.3,14.3,0,0,0,.242-1.446c.061-.521.1-1.053.11-1.6h-5.2a10.074,10.074,0,0,1-.383,2.571" transform="translate(-29.278 -20.53)" fill="#fff"/>
    <path id="Path_684" data-name="Path 684" d="M432.69,238.364v-11.13H421.239v5.183h6.251v6.269h5.2Z" transform="translate(-39.183 -8.118)" fill="#fff"/>
  </g>
</svg>
